<svg width="360" height="360" viewBox="-300 -300 600 600" xmlns="http://www.w3.org/2000/svg">
  <defs>
    <clipPath id="cp-1" clipPathUnits="userSpaceOnUse"><polygon points="167.20307436814682 254.8876408630335 -160.10561412552693 390.4633387196638 -216.26290690593567 254.88764086304425"/></clipPath>
    <clipPath id="cp-2" clipPathUnits="userSpaceOnUse"><polygon points="381.72442177469793 123.99893285943341 396.3899895263478 159.40474542536768 -157.93772998042377 389.01480484442317 -267.7108984007382 123.99893285943662"/></clipPath>
    <clipPath id="cp-3" clipPathUnits="userSpaceOnUse"><polygon points="365.62086663308565 78.95577002700949 398.39030006649773 158.06818065323498 -155.93741944027377 387.67824007229 -283.81445354234984 78.95577002701197"/></clipPath>
    <clipPath id="cp-4" clipPathUnits="userSpaceOnUse"><polygon points="358.1481802670069 55.50062743773359 400.1468843896786 156.89446853278181 -154.18083511709395 386.5045279518356 -291.2871399084261 55.50062743774371"/></clipPath>
    <clipPath id="cp-5" clipPathUnits="userSpaceOnUse"><polygon points="353.91043555749803 40.813863164944664 401.5924965089913 155.92854139593865 -152.73522299777986 385.53860081499425 -295.5248846179395 40.813863164944266"/></clipPath>
    <clipPath id="cp-6" clipPathUnits="userSpaceOnUse"><polygon points="351.07451562497084 30.641925425830017 402.6713408481016 155.20768065490458 -151.65637865866927 384.8177400739621 -298.3608045504649 30.641925425835375"/></clipPath>
    <clipPath id="cp-7" clipPathUnits="userSpaceOnUse"><polygon points="348.83549365825786 23.171521899982977 403.34125116229256 154.76006089363875 -150.9864683444772 384.37012031269904 -300.59982651718013 23.17152189998764"/></clipPath>
    <clipPath id="cp-8" clipPathUnits="userSpaceOnUse"><polygon points="346.7841253218265 17.497291990780283 403.57541625325615 154.60359678211384 -150.75230325351632 384.21365620116813 -302.6511948536108 17.49729199078007"/></clipPath>
    <clipPath id="cp-9" clipPathUnits="userSpaceOnUse"><polygon points="344.6965911688997 13.110529160825102 403.36357090992294 154.7451473150712 -150.96414859684967 384.35520673412566 -304.7387290065373 13.110529160825202"/></clipPath>
    <clipPath id="cp-10" clipPathUnits="userSpaceOnUse"><polygon points="342.4504605238739 9.694491762883532 402.71258247699416 155.18012387948727 -151.61513702977777 384.79018329854125 -306.98485965156294 9.694491762883162"/></clipPath>
    <clipPath id="cp-11" clipPathUnits="userSpaceOnUse"><polygon points="339.9861057189926 7.031462500758674 401.6463815146349 155.8925365862649 -152.68133799213723 385.50259600531865 -309.4492144564433 7.031462500758631"/></clipPath>
    <clipPath id="cp-12" clipPathUnits="userSpaceOnUse"><polygon points="337.2866283711141 4.956605419220202 400.2052093813136 156.8554970193146 -154.12251012545823 386.4655564383685 -312.14869180432174 4.956605419220387"/></clipPath>
    <clipPath id="cp-13" clipPathUnits="userSpaceOnUse"><polygon points="334.3659438553264 3.3336152398265577 398.4441855928681 158.03217549562157 -155.8835339139043 387.6422349146753 -315.06937632011005 3.333615239826913"/></clipPath>
    <clipPath id="cp-14" clipPathUnits="userSpaceOnUse"><polygon points="331.2606136349574 2.041397694326053 396.43123189165726 159.37718815789103 -157.89648761511492 388.9872475769452 -318.1747065404787 2.0413976943267067"/></clipPath>
    <clipPath id="cp-15" clipPathUnits="userSpaceOnUse"><polygon points="328.0234102907637 0.9666919806749861 394.24442564960253 160.83836537410062 -160.08329385716937 390.44842479315435 -321.4119098846725 0.9666919806750429"/></clipPath>
    <clipPath id="cp-16" clipPathUnits="userSpaceOnUse"><polygon points="160.0832938571694 -390.44842479315446 321.41190988467264 -0.9666919806749448 -328.02341029076365 -0.9666919806748879 -394.24442564960253 -160.83836537410062"/></clipPath>
    <clipPath id="cp-17" clipPathUnits="userSpaceOnUse"><polygon points="157.89648761511464 -388.98724757694504 318.174706540479 -2.041397694326291 -331.26061363495756 -2.0413976943263195 -396.4312318916575 -159.37718815789103"/></clipPath>
    <clipPath id="cp-18" clipPathUnits="userSpaceOnUse"><polygon points="155.88353391390422 -387.642234914675 315.0693763201103 -3.3336152398267327 -334.36594385532663 -3.3336152398267185 -398.4441855928683 -158.03217549562132"/></clipPath>
    <clipPath id="cp-19" clipPathUnits="userSpaceOnUse"><polygon points="154.12251012545806 -386.4655564383679 312.1486918043221 -4.956605419219909 -337.28662837111443 -4.9566054192206765 -400.20520938131386 -156.8554970193143"/></clipPath>
    <clipPath id="cp-20" clipPathUnits="userSpaceOnUse"><polygon points="152.68133799213714 -385.50259600531814 309.4492144564436 -7.031462500758025 -339.9861057189929 -7.031462500759318 -401.64638151463515 -155.89253658626484"/></clipPath>
    <clipPath id="cp-21" clipPathUnits="userSpaceOnUse"><polygon points="151.61513702977786 -384.7901832985408 306.984859651563 -9.694491762883219 -342.45046052387397 -9.69449176288346 -402.7125824769942 -155.18012387948698"/></clipPath>
    <clipPath id="cp-22" clipPathUnits="userSpaceOnUse"><polygon points="150.96414859684916 -384.35520673412555 304.73872900653714 -13.110529160824964 -344.6965911688998 -13.110529160825447 -403.3635709099231 -154.74514731507156"/></clipPath>
    <clipPath id="cp-23" clipPathUnits="userSpaceOnUse"><polygon points="150.7523032535177 -384.21365620116813 302.6511948536103 -17.49729199077979 -346.78412532182574 -17.497291990780486 -403.5754162532548 -154.60359678211415"/></clipPath>
    <clipPath id="cp-24" clipPathUnits="userSpaceOnUse"><polygon points="150.98646834447766 -384.37012031269927 300.5998265171799 -23.17152189998744 -348.8354936582575 -23.17152189998339 -403.341251162292 -154.76006089363932"/></clipPath>
    <clipPath id="cp-25" clipPathUnits="userSpaceOnUse"><polygon points="151.65637865866913 -384.817740073961 298.3608045504659 -30.64192542583287 -351.0745156249718 -30.6419254258324 -402.67134084810175 -155.2076806549046"/></clipPath>
    <clipPath id="cp-26" clipPathUnits="userSpaceOnUse"><polygon points="152.73522299778105 -385.53860081499494 295.52488461793894 -40.81386316494615 -353.9104355574973 -40.813863164942994 -401.5924965089911 -155.92854139593945"/></clipPath>
    <clipPath id="cp-27" clipPathUnits="userSpaceOnUse"><polygon points="154.18083511709347 -386.50452795183685 291.2871399084275 -55.500627437740036 -358.1481802670083 -55.50062743773745 -400.14688438967823 -156.89446853278173"/></clipPath>
    <clipPath id="cp-28" clipPathUnits="userSpaceOnUse"><polygon points="155.9374194402742 -387.67824007228927 283.8144535423483 -78.95577002701594 -365.620866633084 -78.95577002700523 -398.39030006649773 -158.06818065323478"/></clipPath>
    <clipPath id="cp-29" clipPathUnits="userSpaceOnUse"><polygon points="157.93772998042388 -389.01480484442305 267.7108984007417 -123.99893285942797 -381.724421774701 -123.99893285944151 -396.38998952634745 -159.4047454253676"/></clipPath>
    <clipPath id="cp-30" clipPathUnits="userSpaceOnUse"><polygon points="160.10561412553014 -390.46333871966266 216.26290690593802 -254.88764086304207 -167.203074368146 -254.88764086303433"/></clipPath>
    <clipPath id="cp-31" clipPathUnits="userSpaceOnUse"><polygon points="-274.74992511478877 274.7499251186375 -274.74992511476444 -325.25007488136464 -0.0024503672896436512 -325.2500748813536 -0.0024503673140223725 274.74992511864855"/></clipPath>
    <clipPath id="cp-32" clipPathUnits="userSpaceOnUse"><polygon points="-250.52407136758686 250.52407136793377 -250.52407136757367 -349.47592863206535 -0.019020862523071003 -349.4759286320614 -0.019020862536230254 250.5240713679377"/></clipPath>
    <clipPath id="cp-33" clipPathUnits="userSpaceOnUse"><polygon points="226.32533545147635 -373.67466454471753 226.3253354515682 226.32533545528304 0.06270918894190913 226.3253354553177 0.06270918885007859 -373.67466454468286"/></clipPath>
    <clipPath id="cp-34" clipPathUnits="userSpaceOnUse"><polygon points="-203.1735344195636 203.1735344205563 -203.17353441953892 -396.82646557945225 -0.14323138923592182 -396.82646557944383 -0.14323138926059187 203.17353442056472"/></clipPath>
    <clipPath id="cp-35" clipPathUnits="userSpaceOnUse"><polygon points="-181.07501920003205 181.07501919902083 -181.0750191999885 -418.92498080097846 -0.26693839190770063 -418.92498080096766 -0.26693839195129954 181.0750191990317"/></clipPath>
    <clipPath id="cp-36" clipPathUnits="userSpaceOnUse"><polygon points="160.03234521265313 -439.96765478607495 160.03234521267996 160.03234521390846 0.4363856167203721 160.03234521391556 0.43638561669354203 -439.96765478606784"/></clipPath>
    <clipPath id="cp-37" clipPathUnits="userSpaceOnUse"><polygon points="-140.04419180764162 140.04419180918987 -140.04419180760365 -459.9558081908102 -0.6502524136643046 -459.95580819080146 -0.6502524137022192 140.04419180919868"/></clipPath>
    <clipPath id="cp-38" clipPathUnits="userSpaceOnUse"><polygon points="-122.11055276586615 122.1105527617913 -122.11055276579793 -477.88944723820896 -0.8984315536767724 -477.8894472381952 -0.8984315537449845 122.11055276180505"/></clipPath>
    <clipPath id="cp-39" clipPathUnits="userSpaceOnUse"><polygon points="106.22012351017369 -493.77987649004666 106.22012351022042 106.22012350995311 1.1696184597153092 106.22012350996141 1.1696184596686408 -493.77987649003836"/></clipPath>
    <clipPath id="cp-40" clipPathUnits="userSpaceOnUse"><polygon points="91.35600302004696 -508.643996980805 91.35600302006821 91.35600301920908 1.4570131210782904 91.35600301921016 1.4570131210570878 -508.64399698080393"/></clipPath>
    <clipPath id="cp-41" clipPathUnits="userSpaceOnUse"><polygon points="79.51003848862112 -520.4899615109908 79.51003848884054 79.51003848902619 1.732260711062736 79.51003848905461 1.7322607108432635 -520.4899615109624"/></clipPath>
    <clipPath id="cp-42" clipPathUnits="userSpaceOnUse"><polygon points="68.66121218854988 -531.3387878105214 68.66121218856227 68.66121218947859 1.994545521895617 68.66121218947995 1.994545521883225 -531.33878781052"/></clipPath>
    <clipPath id="cp-43" clipPathUnits="userSpaceOnUse"><polygon points="-60.79843633640044 60.79843634111401 -60.79843633607223 -539.2015636588885 -2.2125777502136543 -539.2015636588533 -2.2125777505418682 60.7984363411492"/></clipPath>
    <clipPath id="cp-44" clipPathUnits="userSpaceOnUse"><polygon points="-54.90671692383222 54.906716923474534 -54.90671692343011 -545.0932830765256 -2.381464398177542 -545.0932830764904 -2.381464398579709 54.90671692350972"/></clipPath>
    <clipPath id="cp-45" clipPathUnits="userSpaceOnUse"><polygon points="-50.97607537849839 50.976075373069705 -50.97607537756912 -549.0239246269298 -2.4912268927207037 -549.0239246268559 -2.49122689364998 50.97607537314349"/></clipPath>
    <clipPath id="cp-46" clipPathUnits="userSpaceOnUse"><polygon points="-50.97607537533514 50.97607537653005 -50.976075373819015 -549.0239246234864 -2.4912268889706013 -549.0239246233652 -2.491226890486729 50.97607537665118"/></clipPath>
    <clipPath id="cp-47" clipPathUnits="userSpaceOnUse"><polygon points="54.90671692268069 -545.0932830756067 54.90671692279096 54.90671692439341 2.381464397538423 54.90671692440307 2.3814643974281466 -545.093283075597"/></clipPath>
    <clipPath id="cp-48" clipPathUnits="userSpaceOnUse"><polygon points="-60.79843634054558 60.79843633707918 -60.79843634018167 -539.2015636629378 -2.212577754323121 -539.2015636629023 -2.2125777546870324 60.79843633711471"/></clipPath>
    <clipPath id="cp-49" clipPathUnits="userSpaceOnUse"><polygon points="-68.66121218831648 68.66121218971523 -68.66121218828283 -531.3387878103018 -1.9945455216162316 -531.3387878102981 -1.994545521649826 68.66121218971892"/></clipPath>
    <clipPath id="cp-50" clipPathUnits="userSpaceOnUse"><polygon points="-79.51003849033143 79.51003848769346 -79.51003848992397 -520.489961512304 -1.7322607121462 -520.4899615122531 -1.7322607125536535 79.5100384877444"/></clipPath>
    <clipPath id="cp-51" clipPathUnits="userSpaceOnUse"><polygon points="-91.3560030187945 91.35600302055101 -91.35600301858292 -508.6439969794317 -1.4570131195930287 -508.64399697939996 -1.4570131198046 91.35600302058273"/></clipPath>
    <clipPath id="cp-52" clipPathUnits="userSpaceOnUse"><polygon points="-106.22012351208883 106.2201235081481 -106.22012351185964 -493.7798764918518 -1.1696184613545597 -493.7798764918116 -1.1696184615837524 106.2201235081883"/></clipPath>
    <clipPath id="cp-53" clipPathUnits="userSpaceOnUse"><polygon points="122.11055276204547 -477.88944723449356 122.11055276216655 122.11055276552347 0.8984315500453874 122.11055276554796 0.898431549924311 -477.8894472344691"/></clipPath>
    <clipPath id="cp-54" clipPathUnits="userSpaceOnUse"><polygon points="-140.04419180764162 140.04419180918987 -140.04419180760365 -459.9558081908102 -0.6502524136643046 -459.95580819080146 -0.6502524137022192 140.04419180919868"/></clipPath>
    <clipPath id="cp-55" clipPathUnits="userSpaceOnUse"><polygon points="-160.03234521286382 160.03234521373238 -160.03234521278992 -439.96765478626764 -0.43638561683039256 -439.967654786248 -0.43638561690423217 160.032345213752"/></clipPath>
    <clipPath id="cp-56" clipPathUnits="userSpaceOnUse"><polygon points="-181.07501920148144 181.07501919759278 -181.07501920142482 -418.9249808024071 -0.2669383933440628 -418.92498080239005 -0.2669383934006504 181.07501919760983"/></clipPath>
    <clipPath id="cp-57" clipPathUnits="userSpaceOnUse"><polygon points="-203.1735344195636 203.1735344205563 -203.17353441953892 -396.82646557945225 -0.14323138923592182 -396.82646557944383 -0.14323138926059187 203.17353442056472"/></clipPath>
    <clipPath id="cp-58" clipPathUnits="userSpaceOnUse"><polygon points="226.32533545147635 -373.67466454471753 226.3253354515682 226.32533545528304 0.06270918894190913 226.3253354553177 0.06270918885007859 -373.67466454468286"/></clipPath>
    <clipPath id="cp-59" clipPathUnits="userSpaceOnUse"><polygon points="-250.52407136758686 250.52407136793377 -250.52407136757367 -349.47592863206535 -0.019020862523071003 -349.4759286320614 -0.019020862536230254 250.5240713679377"/></clipPath>
    <clipPath id="cp-60" clipPathUnits="userSpaceOnUse"><polygon points="274.74992511483936 -325.25007488141625 274.7499251148412 274.749925118584 0.0024503673663751613 274.749925118585 0.002450367364541961 -325.25007488141523"/></clipPath>
    <clipPath id="cp-61" clipPathUnits="userSpaceOnUse"><polygon points="-0.0024503670846947045 -274.7499251188706 -0.002450367076836102 325.2500748811293 -274.7499251145516 325.2500748811328 -274.74992511455946 -274.7499251188671"/></clipPath>
    <clipPath id="cp-62" clipPathUnits="userSpaceOnUse"><polygon points="-0.019020863252222853 -250.5240713672313 -0.01902086323286767 349.4759286327677 -250.5240713682834 349.47592863277407 -250.5240713683027 -250.52407136722493"/></clipPath>
    <clipPath id="cp-63" clipPathUnits="userSpaceOnUse"><polygon points="-0.0627091920428029 -226.32533545221474 -0.06270919200790104 373.6746645477855 -226.32533545463423 373.6746645477986 -226.32533545466913 -226.3253354522016"/></clipPath>
    <clipPath id="cp-64" clipPathUnits="userSpaceOnUse"><polygon points="-0.14323139007845498 -203.1735344197221 -0.1432313900618567 396.82646558026687 -203.1735344203649 396.82646558027017 -203.1735344203815 -203.1735344197188"/></clipPath>
    <clipPath id="cp-65" clipPathUnits="userSpaceOnUse"><polygon points="0.2669383895052846 418.92498079854835 0.266938389543256 -181.07501920145154 181.07501919762404 -181.07501920144 181.07501919758607 418.9249807985599"/></clipPath>
    <clipPath id="cp-66" clipPathUnits="userSpaceOnUse"><polygon points="-0.43638561690423217 -160.032345213752 -0.43638561683039256 439.967654786248 -160.03234521278992 439.96765478626764 -160.03234521286382 -160.03234521373238"/></clipPath>
    <clipPath id="cp-67" clipPathUnits="userSpaceOnUse"><polygon points="-0.6502524137022192 -140.04419180919868 -0.6502524136643046 459.95580819080146 -140.04419180760365 459.9558081908102 -140.04419180764162 -140.04419180918987"/></clipPath>
    <clipPath id="cp-68" clipPathUnits="userSpaceOnUse"><polygon points="0.898431549924311 477.8894472344691 0.8984315500453874 -122.11055276554796 122.11055276216655 -122.11055276552347 122.11055276204547 477.88944723449356"/></clipPath>
    <clipPath id="cp-69" clipPathUnits="userSpaceOnUse"><polygon points="-1.1696184615837524 -106.2201235081883 -1.1696184613545597 493.7798764918116 -106.22012351185964 493.7798764918518 -106.22012351208883 -106.2201235081481"/></clipPath>
    <clipPath id="cp-70" clipPathUnits="userSpaceOnUse"><polygon points="-1.4570131198046 -91.35600302058273 -1.4570131195930287 508.64399697939996 -91.35600301858292 508.6439969794317 -91.3560030187945 -91.35600302055101"/></clipPath>
    <clipPath id="cp-71" clipPathUnits="userSpaceOnUse"><polygon points="-1.7322607125536535 -79.5100384877444 -1.7322607121462 520.4899615122531 -79.51003848992397 520.489961512304 -79.51003849033143 -79.51003848769346"/></clipPath>
    <clipPath id="cp-72" clipPathUnits="userSpaceOnUse"><polygon points="-1.994545521649826 -68.66121218971892 -1.9945455216162316 531.3387878102981 -68.66121218828283 531.3387878103018 -68.66121218831648 -68.66121218971523"/></clipPath>
    <clipPath id="cp-73" clipPathUnits="userSpaceOnUse"><polygon points="-2.2125777546870324 -60.79843633711471 -2.212577754323121 539.2015636629023 -60.79843634018167 539.2015636629378 -60.79843634054558 -60.79843633707918"/></clipPath>
    <clipPath id="cp-74" clipPathUnits="userSpaceOnUse"><polygon points="2.3814643974281466 545.093283075597 2.381464397538423 -54.90671692440307 54.90671692279096 -54.90671692439341 54.90671692268069 545.0932830756067"/></clipPath>
    <clipPath id="cp-75" clipPathUnits="userSpaceOnUse"><polygon points="-2.491226890486729 -50.97607537665118 -2.4912268889706013 549.0239246233652 -50.976075373819015 549.0239246234864 -50.97607537533514 -50.97607537653005"/></clipPath>
    <clipPath id="cp-76" clipPathUnits="userSpaceOnUse"><polygon points="-2.49122689364998 -50.97607537314349 -2.4912268927207037 549.0239246268559 -50.97607537756912 549.0239246269298 -50.97607537849839 -50.976075373069705"/></clipPath>
    <clipPath id="cp-77" clipPathUnits="userSpaceOnUse"><polygon points="-2.381464398579709 -54.90671692350972 -2.381464398177542 545.0932830764904 -54.90671692343011 545.0932830765256 -54.90671692383222 -54.906716923474534"/></clipPath>
    <clipPath id="cp-78" clipPathUnits="userSpaceOnUse"><polygon points="-2.2125777505418682 -60.7984363411492 -2.2125777502136543 539.2015636588533 -60.79843633607223 539.2015636588885 -60.79843633640044 -60.79843634111401"/></clipPath>
    <clipPath id="cp-79" clipPathUnits="userSpaceOnUse"><polygon points="1.994545521883225 531.33878781052 1.994545521895617 -68.66121218947995 68.66121218856227 -68.66121218947859 68.66121218854988 531.3387878105214"/></clipPath>
    <clipPath id="cp-80" clipPathUnits="userSpaceOnUse"><polygon points="1.7322607108432635 520.4899615109624 1.732260711062736 -79.51003848905461 79.51003848884054 -79.51003848902619 79.51003848862112 520.4899615109908"/></clipPath>
    <clipPath id="cp-81" clipPathUnits="userSpaceOnUse"><polygon points="1.4570131210570878 508.64399698080393 1.4570131210782904 -91.35600301921016 91.35600302006821 -91.35600301920908 91.35600302004696 508.643996980805"/></clipPath>
    <clipPath id="cp-82" clipPathUnits="userSpaceOnUse"><polygon points="1.1696184596686408 493.77987649003836 1.1696184597153092 -106.22012350996141 106.22012351022042 -106.22012350995311 106.22012351017369 493.77987649004666"/></clipPath>
    <clipPath id="cp-83" clipPathUnits="userSpaceOnUse"><polygon points="-0.8984315515123455 -122.11055276412893 -0.8984315512931573 477.88944723585416 -122.11055276341438 477.8894472358984 -122.11055276363356 -122.11055276408464"/></clipPath>
    <clipPath id="cp-84" clipPathUnits="userSpaceOnUse"><polygon points="-0.6502524137022192 -140.04419180919868 -0.6502524136643046 459.95580819080146 -140.04419180760365 459.9558081908102 -140.04419180764162 -140.04419180918987"/></clipPath>
    <clipPath id="cp-85" clipPathUnits="userSpaceOnUse"><polygon points="0.43638561669354203 439.96765478606784 0.4363856167203721 -160.03234521391556 160.03234521267996 -160.03234521390846 160.03234521265313 439.96765478607495"/></clipPath>
    <clipPath id="cp-86" clipPathUnits="userSpaceOnUse"><polygon points="-0.26693839349417203 -181.0750191975077 -0.26693839343067793 418.92498080249175 -181.07501920151154 418.92498080250834 -181.07501920157497 -181.0750191974911"/></clipPath>
    <clipPath id="cp-87" clipPathUnits="userSpaceOnUse"><polygon points="-0.14323139007845498 -203.1735344197221 -0.1432313900618567 396.82646558026687 -203.1735344203649 396.82646558027017 -203.1735344203815 -203.1735344197188"/></clipPath>
    <clipPath id="cp-88" clipPathUnits="userSpaceOnUse"><polygon points="-0.0627091920428029 -226.32533545221474 -0.06270919200790104 373.6746645477855 -226.32533545463423 373.6746645477986 -226.32533545466913 -226.3253354522016"/></clipPath>
    <clipPath id="cp-89" clipPathUnits="userSpaceOnUse"><polygon points="-0.019020863252222853 -250.5240713672313 -0.01902086323286767 349.4759286327677 -250.5240713682834 349.47592863277407 -250.5240713683027 -250.52407136722493"/></clipPath>
    <clipPath id="cp-90" clipPathUnits="userSpaceOnUse"><polygon points="-0.002450369092485971 -274.7499251168604 -0.002450369083625503 325.25007488314196 -274.74992511655836 325.250074883146 -274.7499251165672 -274.7499251168564"/></clipPath>
    <clipPath id="cp-91" clipPathUnits="userSpaceOnUse"><polygon points="7.6602697880642 -300 300 -300 300 300 7.6602697880642 300"/></clipPath>
    <clipPath id="cp-92" clipPathUnits="userSpaceOnUse"><polygon points="-300 -300 300 -300 300 -73.30421142789453 -300 -73.30421142789453"/></clipPath>
    <marker id="arrowhead-yellow" refX="10" refY="4" markerWidth="12" markerHeight="8" orient="auto" markerUnits="userSpaceOnUse">
      <polygon fill="#d6a700" points="0 0, 10 4, 0 8"/>      
    </marker>
    <marker id="arrowhead-blue" refX="10" refY="4" markerWidth="12" markerHeight="8" orient="auto" markerUnits="userSpaceOnUse">
      <polygon fill="#1d63c4" points="0 0, 10 4, 0 8"/>      
    </marker>
  </defs>
  <title>
    Sphere with skewed lat/long grid and tangent basis vectors    
  </title>
  <ellipse transform="rotate(-16.002691604041747 -1.0164395367051602e-14 -6.776263578034398e-15) " fill="none" stroke="#333333" stroke-width="1" cx="-1.0164395367051602e-14" cy="-6.776263578034398e-15" rx="249.99999999999997" ry="249.99999999999997"/>  
  <ellipse transform="rotate(-67.5 2.2532159183320473 0.9333125923280806) " fill="none" stroke="#333333" stroke-width="1" clip-path="url(#cp-1)" cx="2.2532159183320473" cy="0.9333125923280806" rx="250.01201006513844" ry="248.82008670903406"/>  
  <ellipse transform="rotate(-67.49999999999987 4.421100063434149 1.831279606882949) " fill="none" stroke="#333333" stroke-width="1" clip-path="url(#cp-2)" cx="4.421100063434149" cy="1.831279606882949" rx="250.0475888769404" ry="245.2896779255762"/>  
  <ellipse transform="rotate(-67.49999999999989 6.421410603584634 2.6598353615711767) " fill="none" stroke="#333333" stroke-width="1" clip-path="url(#cp-3)" cx="6.421410603584634" cy="2.6598353615711767" rx="250.1053981074299" ry="239.43684585535763"/>  
  <ellipse transform="rotate(-67.50000000000001 8.177994926765042 3.3874364116844315) " fill="none" stroke="#333333" stroke-width="1" clip-path="url(#cp-4)" cx="8.177994926765042" cy="3.3874364116844315" rx="250.18325956941015" ry="231.30862676899005"/>  
  <ellipse transform="rotate(-67.49999999999979 9.623607046077687 3.9862285574346124) " fill="none" stroke="#333333" stroke-width="1" clip-path="url(#cp-5)" cx="9.623607046077687" cy="3.9862285574346124" rx="250.27823239567212" ry="220.97134730905822"/>  
  <ellipse transform="rotate(-67.49999999999963 10.702451385187837 4.433100514383494) " fill="none" stroke="#333333" stroke-width="1" clip-path="url(#cp-6)" cx="10.702451385187837" cy="4.433100514383494" rx="250.38671831397775" ry="208.51098951745152"/>  
  <ellipse transform="rotate(-67.49999999999936 11.372361699377867 4.710586452094509) " fill="none" stroke="#333333" stroke-width="1" clip-path="url(#cp-7)" cx="11.372361699377867" cy="4.710586452094509" rx="250.5045921271504" ry="194.03351059333218"/>  
  <ellipse transform="rotate(-67.5 11.606526790342784 4.8075808086066685) " fill="none" stroke="#333333" stroke-width="1" clip-path="url(#cp-8)" cx="11.606526790342784" cy="4.8075808086066685" rx="250.62735355854278" ry="177.66502039863002"/>  
  <ellipse transform="rotate(-67.49999999999996 11.394681447009987 4.71983159427257) " fill="none" stroke="#333333" stroke-width="1" clip-path="url(#cp-9)" cx="11.394681447009987" cy="4.71983159427257" rx="250.75029564716067" ry="159.5517145907538"/>  
  <ellipse transform="rotate(-67.49999999999997 10.743693014080883 4.450183356405361) " fill="none" stroke="#333333" stroke-width="1" clip-path="url(#cp-10)" cx="10.743693014080883" cy="4.450183356405361" rx="250.8686839299691" ry="139.85946508103558"/>  
  <ellipse transform="rotate(-67.49999999999999 9.6774920517224 4.00854845758128) " fill="none" stroke="#333333" stroke-width="1" clip-path="url(#cp-11)" cx="9.6774920517224" cy="4.00854845758128" rx="250.9779398103342" ry="118.7729827890676"/>  
  <ellipse transform="rotate(-67.50000000000001 8.23631991840097 3.4115954142453515) " fill="none" stroke="#333333" stroke-width="1" clip-path="url(#cp-12)" cx="8.23631991840097" cy="3.4115954142453515" rx="251.07382087468395" ry="96.49449008311255"/>  
  <ellipse transform="rotate(-67.50000000000001 6.475296129955056 2.6821554774094114) " fill="none" stroke="#333333" stroke-width="1" clip-path="url(#cp-13)" cx="6.475296129955056" cy="2.6821554774094114" rx="251.15259058115083" ry="73.24187061551815"/>  
  <ellipse transform="rotate(-67.49999999999999 4.462342428744522 1.8483627539388736) " fill="none" stroke="#333333" stroke-width="1" clip-path="url(#cp-14)" cx="4.462342428744522" cy="1.8483627539388736" rx="251.21116978915205" ry="49.24630024954209"/>  
  <ellipse transform="rotate(-67.5 2.2755361866896897 0.9425579501975564) " fill="none" stroke="#333333" stroke-width="1" clip-path="url(#cp-15)" cx="2.2755361866896897" cy="0.9425579501975564" rx="251.24726308603914" ry="24.74940133167227"/>  
  <line fill="none" stroke="#333333" stroke-width="1" x1="-95.67085809127245" y1="230.96988312782167" x2="95.67085809127245" y2="-230.96988312782167"/>  
  <ellipse transform="rotate(-67.5 -2.2755361866897044 -0.9425579501974214) " fill="none" stroke="#333333" stroke-width="1" clip-path="url(#cp-16)" cx="-2.2755361866897044" cy="-0.9425579501974214" rx="251.24726308604096" ry="24.749401331672214"/>  
  <ellipse transform="rotate(-67.49999999999997 -4.4623424287445586 -1.8483627539388068) " fill="none" stroke="#333333" stroke-width="1" clip-path="url(#cp-17)" cx="-4.4623424287445586" cy="-1.8483627539388068" rx="251.21116978915146" ry="49.24630024954208"/>  
  <ellipse transform="rotate(-67.50000000000001 -6.475296129955057 -2.6821554774094403) " fill="none" stroke="#333333" stroke-width="1" clip-path="url(#cp-18)" cx="-6.475296129955057" cy="-2.6821554774094403" rx="251.1525905811511" ry="73.24187061551811"/>  
  <ellipse transform="rotate(-67.49999999999999 -8.236319918400957 -3.41159541424534) " fill="none" stroke="#333333" stroke-width="1" clip-path="url(#cp-19)" cx="-8.236319918400957" cy="-3.41159541424534" rx="251.0738208746837" ry="96.49449008311255"/>  
  <ellipse transform="rotate(-67.50000000000003 -9.677492051722389 -4.008548457581313) " fill="none" stroke="#333333" stroke-width="1" clip-path="url(#cp-20)" cx="-9.677492051722389" cy="-4.008548457581313" rx="250.97793981033414" ry="118.77298278906753"/>  
  <ellipse transform="rotate(-67.49999999999997 -10.74369301408086 -4.450183356405361) " fill="none" stroke="#333333" stroke-width="1" clip-path="url(#cp-21)" cx="-10.74369301408086" cy="-4.450183356405361" rx="250.8686839299694" ry="139.8594650810354"/>  
  <ellipse transform="rotate(-67.5 -11.394681447009994 -4.719831594272629) " fill="none" stroke="#333333" stroke-width="1" clip-path="url(#cp-22)" cx="-11.394681447009994" cy="-4.719831594272629" rx="250.75029564716067" ry="159.55171459075385"/>  
  <ellipse transform="rotate(-67.5 -11.606526790342803 -4.807580808606645) " fill="none" stroke="#333333" stroke-width="1" clip-path="url(#cp-23)" cx="-11.606526790342803" cy="-4.807580808606645" rx="250.62735355854286" ry="177.66502039863002"/>  
  <ellipse transform="rotate(-67.49999999999937 -11.372361699377825 -4.710586452094562) " fill="none" stroke="#333333" stroke-width="1" clip-path="url(#cp-24)" cx="-11.372361699377825" cy="-4.710586452094562" rx="250.50459212715035" ry="194.03351059333224"/>  
  <ellipse transform="rotate(-67.49999999999972 -10.70245138518782 -4.433100514383492) " fill="none" stroke="#333333" stroke-width="1" clip-path="url(#cp-25)" cx="-10.70245138518782" cy="-4.433100514383492" rx="250.38671831397775" ry="208.5109895174515"/>  
  <ellipse transform="rotate(-67.49999999999986 -9.623607046077662 -3.9862285574346825) " fill="none" stroke="#333333" stroke-width="1" clip-path="url(#cp-26)" cx="-9.623607046077662" cy="-3.9862285574346825" rx="250.27823239567226" ry="220.97134730905816"/>  
  <ellipse transform="rotate(-67.4999999999999 -8.177994926765072 -3.3874364116844546) " fill="none" stroke="#333333" stroke-width="1" clip-path="url(#cp-27)" cx="-8.177994926765072" cy="-3.3874364116844546" rx="250.18325956941015" ry="231.30862676899005"/>  
  <ellipse transform="rotate(-67.49999999999993 -6.421410603584657 -2.6598353615711923) " fill="none" stroke="#333333" stroke-width="1" clip-path="url(#cp-28)" cx="-6.421410603584657" cy="-2.6598353615711923" rx="250.10539810742958" ry="239.43684585535786"/>  
  <ellipse transform="rotate(-67.4999999999998 -4.421100063434129 -1.8312796068829613) " fill="none" stroke="#333333" stroke-width="1" clip-path="url(#cp-29)" cx="-4.421100063434129" cy="-1.8312796068829613" rx="250.0475888769398" ry="245.28967792557688"/>  
  <ellipse transform="rotate(-67.50000000000045 -2.2532159183320184 -0.9333125923281013) " fill="none" stroke="#333333" stroke-width="1" clip-path="url(#cp-30)" cx="-2.2532159183320184" cy="-0.9333125923281013" rx="250.01201006514626" ry="248.8200867090262"/>  
  <ellipse transform="rotate(45 8.470329472542999e-15 -2.0328790734103205e-14) " fill="none" stroke="#1f8a3e" stroke-width="2" cx="8.470329472542999e-15" cy="-2.0328790734103205e-14" rx="249.99999999999997" ry="249.99999999999997"/>  
  <line fill="none" stroke="#333333" stroke-width="1" x1="-250" y1="-1.3916440899401741e-14" x2="250" y2="1.7008983321491018e-14"/>  
  <ellipse transform="rotate(89.9999999999977 1.935500172036494e-9 -25.25007488328792) " fill="none" stroke="#333333" stroke-width="1" clip-path="url(#cp-31)" cx="1.935500172036494e-9" cy="-25.25007488328792" rx="2.512848887118671" ry="250.03743884140528"/>  
  <ellipse transform="rotate(89.99999999999908 1.7880971047156515e-10 -49.47592863224075) " fill="none" stroke="#333333" stroke-width="1" clip-path="url(#cp-32)" cx="1.7880971047156515e-10" cy="-49.47592863224075" rx="4.852526253677653" ry="246.38421760207328"/>  
  <ellipse transform="rotate(-89.9999999999912 -1.8976497726134788e-9 -73.67466454658012) " fill="none" stroke="#333333" stroke-width="1" clip-path="url(#cp-33)" cx="-1.8976497726134788e-9" cy="-73.67466454658012" rx="7.050225822612404" ry="240.33804435078727"/>  
  <ellipse transform="rotate(89.99999999999766 5.0529138733295e-10 -96.82646557994343) " fill="none" stroke="#333333" stroke-width="1" clip-path="url(#cp-34)" cx="5.0529138733295e-10" cy="-96.82646557994343" rx="8.945598975472764" ry="231.96196425551096"/>  
  <ellipse transform="rotate(89.99999999999659 -4.899645997770418e-10 -118.92498080047814) " fill="none" stroke="#333333" stroke-width="1" clip-path="url(#cp-35)" cx="-4.899645997770418e-10" cy="-118.92498080047814" rx="10.488246943016984" ry="221.342782001074"/>  
  <ellipse transform="rotate(-89.99999999999746 -6.266801770505636e-10 -139.9676547867067) " fill="none" stroke="#333333" stroke-width="1" clip-path="url(#cp-36)" cx="-6.266801770505636e-10" cy="-139.9676547867067" rx="11.637885166037337" ry="208.58968736609026"/>  
  <ellipse transform="rotate(89.99999999999636 7.880720763883158e-10 -159.9558081915893) " fill="none" stroke="#333333" stroke-width="1" clip-path="url(#cp-37)" cx="7.880720763883158e-10" cy="-159.9558081915893" rx="12.36475118082072" ry="193.83259971901992"/>  
  <ellipse transform="rotate(89.99999999999349 -2.01350713195528e-9 -177.88944723618135) " fill="none" stroke="#333333" stroke-width="1" clip-path="url(#cp-38)" cx="-2.01350713195528e-9" cy="-177.88944723618135" rx="12.57868344422202" ry="177.22030125206797"/>  
  <ellipse transform="rotate(-89.99999999999551 1.1772902637642517e-10 -193.77987648992078) " fill="none" stroke="#333333" stroke-width="1" clip-path="url(#cp-39)" cx="1.1772902637642517e-10" cy="-193.77987648992078" rx="12.293265225125946" ry="158.91843089761193"/>  
  <ellipse transform="rotate(-89.99999999999933 4.271688848110595e-10 -208.6439969803647) " fill="none" stroke="#333333" stroke-width="1" clip-path="url(#cp-40)" cx="4.271688848110595e-10" cy="-208.6439969803647" rx="11.591639402054199" ry="139.10740743871534"/>  
  <ellipse transform="rotate(-89.99999999997905 -1.611445245542869e-10 -220.48996151110816) " fill="none" stroke="#333333" stroke-width="1" clip-path="url(#cp-41)" cx="-1.611445245542869e-10" cy="-220.48996151110816" rx="10.393824835921881" ry="117.98034204992494"/>  
  <ellipse transform="rotate(-89.99999999999882 -4.6192823691152033e-10 -231.33878781098204) " fill="none" stroke="#333333" stroke-width="1" clip-path="url(#cp-42)" cx="-4.6192823691152033e-10" cy="-231.33878781098204" rx="8.852952135865976" ry="95.74098849225867"/>  
  <ellipse transform="rotate(89.99999999996561 2.4634090553906798e-9 -239.20156366131326) " fill="none" stroke="#333333" stroke-width="1" clip-path="url(#cp-43)" cx="2.4634090553906798e-9" cy="-239.20156366131326" rx="6.943654870609211" ry="72.60176476917431"/>  
  <ellipse transform="rotate(89.99999999996159 -5.995985378954234e-11 -245.09328307642886) " fill="none" stroke="#333333" stroke-width="1" clip-path="url(#cp-44)" cx="-5.995985378954234e-11" cy="-245.09328307642886" rx="4.781532751940576" ry="48.78186463338378"/>  
  <ellipse transform="rotate(89.99999999991284 -2.4466654316430784e-9 -249.02392462440588) " fill="none" stroke="#333333" stroke-width="1" clip-path="url(#cp-45)" cx="-2.4466654316430784e-9" cy="-249.02392462440588" rx="2.440861296271973" ry="24.50546227197027"/>  
  <line fill="none" stroke="#333333" stroke-width="1" x1="-1.5308084989341916e-14" y1="-250" x2="1.5308084989341916e-14" y2="-250"/>  
  <ellipse transform="rotate(89.99999999985684 1.035958063691153e-9 -249.02392462437987) " fill="none" stroke="#333333" stroke-width="1" clip-path="url(#cp-46)" cx="1.035958063691153e-9" cy="-249.02392462437987" rx="2.4408612963917853" ry="24.50546227312653"/>  
  <ellipse transform="rotate(-89.99999999998946 -8.338950773791308e-10 -245.0932830764304) " fill="none" stroke="#333333" stroke-width="1" clip-path="url(#cp-47)" cx="-8.338950773791308e-10" cy="-245.0932830764304" rx="4.781532751926574" ry="48.781864633232956"/>  
  <ellipse transform="rotate(89.99999999996524 -1.624574176392726e-9 -239.20156366126096) " fill="none" stroke="#333333" stroke-width="1" clip-path="url(#cp-48)" cx="-1.624574176392726e-9" cy="-239.20156366126096" rx="6.943654870619374" ry="72.60176476918011"/>  
  <ellipse transform="rotate(89.99999999999682 7.0860640773945e-10 -231.3387878109915) " fill="none" stroke="#333333" stroke-width="1" clip-path="url(#cp-49)" cx="7.0860640773945e-10" cy="-231.3387878109915" rx="8.852952135861845" ry="95.74098849224976"/>  
  <ellipse transform="rotate(89.9999999999625 -1.1936318858937481e-9 -220.48996151106047) " fill="none" stroke="#333333" stroke-width="1" clip-path="url(#cp-50)" cx="-1.1936318858937481e-9" cy="-220.48996151106047" rx="10.393824835919967" ry="117.98034204989641"/>  
  <ellipse transform="rotate(89.99999999997979 9.486618407037676e-10 -208.64399698036272) " fill="none" stroke="#333333" stroke-width="1" clip-path="url(#cp-51)" cx="9.486618407037676e-10" cy="-208.64399698036272" rx="11.591639402053458" ry="139.10740743870153"/>  
  <ellipse transform="rotate(89.99999999997809 -1.8927029669222103e-9 -193.77987648991854) " fill="none" stroke="#333333" stroke-width="1" clip-path="url(#cp-52)" cx="-1.8927029669222103e-9" cy="-193.77987648991854" rx="12.293265225127538" ry="158.9184308976032"/>  
  <ellipse transform="rotate(-89.99999999998845 -1.7193015173104659e-9 -177.88944723617453) " fill="none" stroke="#333333" stroke-width="1" clip-path="url(#cp-53)" cx="-1.7193015173104659e-9" cy="-177.88944723617453" rx="12.578683444223831" ry="177.22030125208656"/>  
  <ellipse transform="rotate(89.99999999999636 7.880720763883158e-10 -159.9558081915893) " fill="none" stroke="#333333" stroke-width="1" clip-path="url(#cp-54)" cx="7.880720763883158e-10" cy="-159.9558081915893" rx="12.36475118082072" ry="193.83259971901992"/>  
  <ellipse transform="rotate(89.99999999999292 4.6255578047203007e-10 -139.9676547867106) " fill="none" stroke="#333333" stroke-width="1" clip-path="url(#cp-55)" cx="4.6255578047203007e-10" cy="-139.9676547867106" rx="11.637885166037325" ry="208.5896873661048"/>  
  <ellipse transform="rotate(89.99999999999457 -1.921603045798645e-9 -118.92498080046849) " fill="none" stroke="#333333" stroke-width="1" clip-path="url(#cp-56)" cx="-1.921603045798645e-9" cy="-118.92498080046849" rx="10.488246943017826" ry="221.3427820010422"/>  
  <ellipse transform="rotate(89.99999999999766 5.0529138733295e-10 -96.82646557994343) " fill="none" stroke="#333333" stroke-width="1" clip-path="url(#cp-57)" cx="5.0529138733295e-10" cy="-96.82646557994343" rx="8.945598975472764" ry="231.96196425551096"/>  
  <ellipse transform="rotate(-89.9999999999912 -1.8976497726134788e-9 -73.67466454658012) " fill="none" stroke="#333333" stroke-width="1" clip-path="url(#cp-58)" cx="-1.8976497726134788e-9" cy="-73.67466454658012" rx="7.050225822612404" ry="240.33804435078727"/>  
  <ellipse transform="rotate(89.99999999999908 1.7880971047156515e-10 -49.47592863224075) " fill="none" stroke="#333333" stroke-width="1" clip-path="url(#cp-59)" cx="1.7880971047156515e-10" cy="-49.47592863224075" rx="4.852526253677653" ry="246.38421760207328"/>  
  <ellipse transform="rotate(-89.9999999999998 -1.8723688924201965e-9 -25.25007488328743) " fill="none" stroke="#333333" stroke-width="1" clip-path="url(#cp-60)" cx="-1.8723688924201965e-9" cy="-25.25007488328743" rx="2.512848887118448" ry="250.03743884140056"/>  
  <line fill="none" stroke="#1f8a3e" stroke-width="2" x1="-250" y1="-1.3916440899401741e-14" x2="250" y2="1.7008983321491018e-14"/>  
  <ellipse transform="rotate(-89.99999999999925 2.1575720658792053e-9 25.250074883286924) " fill="none" stroke="#333333" stroke-width="1" clip-path="url(#cp-61)" cx="2.1575720658792053e-9" cy="25.250074883286924" rx="2.5128488871182264" ry="250.0374388413785"/>  
  <ellipse transform="rotate(-89.99999999999852 -5.308247019843584e-10 49.475928632237455) " fill="none" stroke="#333333" stroke-width="1" clip-path="url(#cp-62)" cx="-5.308247019843584e-10" cy="49.475928632237455" rx="4.852526253677844" ry="246.38421760206577"/>  
  <ellipse transform="rotate(-89.99999999999666 -1.2184500365088725e-9 73.67466454656689) " fill="none" stroke="#333333" stroke-width="1" clip-path="url(#cp-63)" cx="-1.2184500365088725e-9" cy="73.67466454656689" rx="7.050225822614937" ry="240.33804435072875"/>  
  <ellipse transform="rotate(-89.99999999999906 -3.2422159719384885e-10 96.82646557994993) " fill="none" stroke="#333333" stroke-width="1" clip-path="url(#cp-64)" cx="-3.2422159719384885e-10" cy="96.82646557994993" rx="8.945598975472082" ry="231.96196425552165"/>  
  <ellipse transform="rotate(89.99999999999636 -1.9232745860709646e-9 118.92498080047164) " fill="none" stroke="#333333" stroke-width="1" clip-path="url(#cp-65)" cx="-1.9232745860709646e-9" cy="118.92498080047164" rx="10.488246943018284" ry="221.34278200105598"/>  
  <ellipse transform="rotate(-89.99999999999292 4.6255578047203007e-10 139.9676547867106) " fill="none" stroke="#333333" stroke-width="1" clip-path="url(#cp-66)" cx="4.6255578047203007e-10" cy="139.9676547867106" rx="11.637885166037325" ry="208.5896873661048"/>  
  <ellipse transform="rotate(-89.99999999999636 7.880720763883158e-10 159.9558081915893) " fill="none" stroke="#333333" stroke-width="1" clip-path="url(#cp-67)" cx="7.880720763883158e-10" cy="159.9558081915893" rx="12.36475118082072" ry="193.83259971901992"/>  
  <ellipse transform="rotate(89.99999999998845 -1.7193015173104659e-9 177.88944723617453) " fill="none" stroke="#333333" stroke-width="1" clip-path="url(#cp-68)" cx="-1.7193015173104659e-9" cy="177.88944723617453" rx="12.578683444223831" ry="177.22030125208656"/>  
  <ellipse transform="rotate(-89.99999999997809 -1.8927029669222103e-9 193.77987648991854) " fill="none" stroke="#333333" stroke-width="1" clip-path="url(#cp-69)" cx="-1.8927029669222103e-9" cy="193.77987648991854" rx="12.293265225127538" ry="158.9184308976032"/>  
  <ellipse transform="rotate(-89.99999999997979 9.486618407037676e-10 208.64399698036272) " fill="none" stroke="#333333" stroke-width="1" clip-path="url(#cp-70)" cx="9.486618407037676e-10" cy="208.64399698036272" rx="11.591639402053458" ry="139.10740743870153"/>  
  <ellipse transform="rotate(-89.9999999999625 -1.1936318858937481e-9 220.48996151106047) " fill="none" stroke="#333333" stroke-width="1" clip-path="url(#cp-71)" cx="-1.1936318858937481e-9" cy="220.48996151106047" rx="10.393824835919967" ry="117.98034204989641"/>  
  <ellipse transform="rotate(-89.99999999999682 7.0860640773945e-10 231.3387878109915) " fill="none" stroke="#333333" stroke-width="1" clip-path="url(#cp-72)" cx="7.0860640773945e-10" cy="231.3387878109915" rx="8.852952135861845" ry="95.74098849224976"/>  
  <ellipse transform="rotate(-89.99999999996524 -1.624574176392726e-9 239.20156366126096) " fill="none" stroke="#333333" stroke-width="1" clip-path="url(#cp-73)" cx="-1.624574176392726e-9" cy="239.20156366126096" rx="6.943654870619374" ry="72.60176476918011"/>  
  <ellipse transform="rotate(89.99999999998946 -8.338950773791308e-10 245.0932830764304) " fill="none" stroke="#333333" stroke-width="1" clip-path="url(#cp-74)" cx="-8.338950773791308e-10" cy="245.0932830764304" rx="4.781532751926574" ry="48.781864633232956"/>  
  <ellipse transform="rotate(-89.99999999985684 1.035958063691153e-9 249.02392462437987) " fill="none" stroke="#333333" stroke-width="1" clip-path="url(#cp-75)" cx="1.035958063691153e-9" cy="249.02392462437987" rx="2.4408612963917853" ry="24.50546227312653"/>  
  <line fill="none" stroke="#333333" stroke-width="1" x1="-1.5308084989341916e-14" y1="250" x2="1.5308084989341916e-14" y2="250"/>  
  <ellipse transform="rotate(-89.99999999991284 -2.4466654316430784e-9 249.02392462440588) " fill="none" stroke="#333333" stroke-width="1" clip-path="url(#cp-76)" cx="-2.4466654316430784e-9" cy="249.02392462440588" rx="2.440861296271973" ry="24.50546227197027"/>  
  <ellipse transform="rotate(-89.99999999996159 -5.995985378954234e-11 245.09328307642886) " fill="none" stroke="#333333" stroke-width="1" clip-path="url(#cp-77)" cx="-5.995985378954234e-11" cy="245.09328307642886" rx="4.781532751940576" ry="48.78186463338378"/>  
  <ellipse transform="rotate(-89.99999999996561 2.4634090553906798e-9 239.20156366131326) " fill="none" stroke="#333333" stroke-width="1" clip-path="url(#cp-78)" cx="2.4634090553906798e-9" cy="239.20156366131326" rx="6.943654870609211" ry="72.60176476917431"/>  
  <ellipse transform="rotate(89.99999999999882 -4.6192823691152033e-10 231.33878781098204) " fill="none" stroke="#333333" stroke-width="1" clip-path="url(#cp-79)" cx="-4.6192823691152033e-10" cy="231.33878781098204" rx="8.852952135865976" ry="95.74098849225867"/>  
  <ellipse transform="rotate(89.99999999997905 -1.611445245542869e-10 220.48996151110816) " fill="none" stroke="#333333" stroke-width="1" clip-path="url(#cp-80)" cx="-1.611445245542869e-10" cy="220.48996151110816" rx="10.393824835921881" ry="117.98034204992494"/>  
  <ellipse transform="rotate(89.99999999999933 4.271688848110595e-10 208.6439969803647) " fill="none" stroke="#333333" stroke-width="1" clip-path="url(#cp-81)" cx="4.271688848110595e-10" cy="208.6439969803647" rx="11.591639402054199" ry="139.10740743871534"/>  
  <ellipse transform="rotate(89.99999999999551 1.1772902637642517e-10 193.77987648992078) " fill="none" stroke="#333333" stroke-width="1" clip-path="url(#cp-82)" cx="1.1772902637642517e-10" cy="193.77987648992078" rx="12.293265225125946" ry="158.91843089761193"/>  
  <ellipse transform="rotate(-89.99999999997907 3.0440746674390545e-10 177.88944723617172) " fill="none" stroke="#333333" stroke-width="1" clip-path="url(#cp-83)" cx="3.0440746674390545e-10" cy="177.88944723617172" rx="12.57868344422332" ry="177.2203012520581"/>  
  <ellipse transform="rotate(-89.99999999999636 7.880720763883158e-10 159.9558081915893) " fill="none" stroke="#333333" stroke-width="1" clip-path="url(#cp-84)" cx="7.880720763883158e-10" cy="159.9558081915893" rx="12.36475118082072" ry="193.83259971901992"/>  
  <ellipse transform="rotate(89.99999999999746 -6.266801770505636e-10 139.9676547867067) " fill="none" stroke="#333333" stroke-width="1" clip-path="url(#cp-85)" cx="-6.266801770505636e-10" cy="139.9676547867067" rx="11.637885166037337" ry="208.58968736609026"/>  
  <ellipse transform="rotate(-89.99999999999474 -2.018493002659583e-9 118.9249808004736) " fill="none" stroke="#333333" stroke-width="1" clip-path="url(#cp-86)" cx="-2.018493002659583e-9" cy="118.9249808004736" rx="10.488246943016279" ry="221.34278200106132"/>  
  <ellipse transform="rotate(-89.99999999999906 -3.2422159719384885e-10 96.82646557994993) " fill="none" stroke="#333333" stroke-width="1" clip-path="url(#cp-87)" cx="-3.2422159719384885e-10" cy="96.82646557994993" rx="8.945598975472082" ry="231.96196425552165"/>  
  <ellipse transform="rotate(-89.99999999999666 -1.2184500365088725e-9 73.67466454656689) " fill="none" stroke="#333333" stroke-width="1" clip-path="url(#cp-88)" cx="-1.2184500365088725e-9" cy="73.67466454656689" rx="7.050225822614937" ry="240.33804435072875"/>  
  <ellipse transform="rotate(-89.99999999999852 -5.308247019843584e-10 49.475928632237455) " fill="none" stroke="#333333" stroke-width="1" clip-path="url(#cp-89)" cx="-5.308247019843584e-10" cy="49.475928632237455" rx="4.852526253677844" ry="246.38421760206577"/>  
  <ellipse transform="rotate(-89.99999999999919 1.4824126954779666e-10 25.250074883288956) " fill="none" stroke="#333333" stroke-width="1" clip-path="url(#cp-90)" cx="1.4824126954779666e-10" cy="25.250074883288956" rx="2.5128488871175705" ry="250.0374388413788"/>  
  <line fill="none" stroke="#333333" stroke-width="1" x1="-250" y1="-1.3916440899401741e-14" x2="250" y2="1.7008983321491018e-14"/>  
  <path fill="none" stroke="#d6a700" stroke-width="3" clip-path="url(#cp-91)" d="M0 -250 A251.1525905811511 73.24187061551817 89.9999999999999 0 1 76.44677653672504 -79.88666971408546" marker-end="url(#arrowhead-yellow)"/>  
  <path fill="none" stroke="#1d63c4" stroke-width="3" clip-path="url(#cp-92)" d="M239.23508393305224 -72.57116931361558 A7.008810025646915 240.33804435073623 -89.99999999999933 0 0 76.44677653672504 -79.88666971408544" marker-end="url(#arrowhead-blue)"/>  
</svg>