<svg width="360" height="360" viewBox="-300 -300 600 600" xmlns="http://www.w3.org/2000/svg">
  <defs>
    <clipPath id="cp-1" clipPathUnits="userSpaceOnUse"><polygon points="-297.56113666441865 -253.9543282707118 -297.5611366644179 -297.5611366644275 302.43886333558254 -297.56113666441786 302.4388633355818 -253.95432827070215"/></clipPath>
    <clipPath id="cp-2" clipPathUnits="userSpaceOnUse"><polygon points="-295.2146357746257 -122.16765325255422 -295.2146357746245 -295.2146357746286 304.78536422537525 -295.2146357746245 304.78536422537405 -122.16765325255012"/></clipPath>
    <clipPath id="cp-3" clipPathUnits="userSpaceOnUse"><polygon points="306.95048475219556 76.29593466543734 306.95048475219744 293.0495152478032 -293.0495152478027 293.04951524780773 -293.04951524780455 76.29593466544192"/></clipPath>
    <clipPath id="cp-4" clipPathUnits="userSpaceOnUse"><polygon points="308.8517979227617 52.11319102605017 308.8517979227644 291.14820207723466 -291.1482020772356 291.1482020772425 -291.1482020772383 52.113191026058026"/></clipPath>
    <clipPath id="cp-5" clipPathUnits="userSpaceOnUse"><polygon points="-289.5834827946465 -36.82763460751085 -289.5834827946457 -289.5834827946472 310.4165172053543 -289.58348279464525 310.4165172053535 -36.82763460750889"/></clipPath>
    <clipPath id="cp-6" clipPathUnits="userSpaceOnUse"><polygon points="311.584249903336 26.20882491144728 311.5842499033375 288.41575009666184 -288.4157500966625 288.4157500966656 -288.415750096664 26.208824911450975"/></clipPath>
    <clipPath id="cp-7" clipPathUnits="userSpaceOnUse"><polygon points="-287.69064439768937 -18.460935447890947 -287.6906443976893 -287.6906443976895 312.3093556023107 -287.69064439768937 312.30935560231063 -18.460935447890883"/></clipPath>
    <clipPath id="cp-8" clipPathUnits="userSpaceOnUse"><polygon points="-287.43718592964825 -12.689711182174204 -287.4371859296477 -287.43718592964893 312.56281407035243 -287.43718592964746 312.56281407035186 -12.689711182172768"/></clipPath>
    <clipPath id="cp-9" clipPathUnits="userSpaceOnUse"><polygon points="-287.66648567694006 -8.390697566553536 -287.6664856769389 -287.66648567694057 312.3335143230611 -287.6664856769385 312.33351432305994 -8.390697566551504"/></clipPath>
    <clipPath id="cp-10" clipPathUnits="userSpaceOnUse"><polygon points="311.62888952077685 5.24430840647681 311.628889520778 288.3711104792223 -288.371110479222 288.3711104792242 -288.37111047922315 5.244308406478778"/></clipPath>
    <clipPath id="cp-11" clipPathUnits="userSpaceOnUse"><polygon points="310.474841915176 3.022914043176643 310.4748419151766 289.52515808482343 -289.5251580848234 289.5251580848247 -289.525158084824 3.022914043177943"/></clipPath>
    <clipPath id="cp-12" clipPathUnits="userSpaceOnUse"><polygon points="-291.0850715612101 -1.5450100049752589 -291.08507156120976 -291.08507156121016 308.91492843879024 -291.08507156120925 308.9149284387899 -1.545010004974392"/></clipPath>
    <clipPath id="cp-13" clipPathUnits="userSpaceOnUse"><polygon points="307.008810025647 0.651459762417165 307.0088100256475 292.991189974353 -292.9911899743526 292.9911899743536 -292.9911899743531 0.6514597624177316"/></clipPath>
    <clipPath id="cp-14" clipPathUnits="userSpaceOnUse"><polygon points="304.8300046399069 0.19303494038732794 304.83000463990686 295.16999536009286 -295.16999536009325 295.16999536009297 -295.1699953600932 0.19303494038746116"/></clipPath>
    <clipPath id="cp-15" clipPathUnits="userSpaceOnUse"><polygon points="-297.53697738004394 -0.024134030477344304 -297.53697738004354 -297.53697738004365 302.46302261995646 -297.5369773800433 302.46302261995606 -0.0241340304770441"/></clipPath>
    <clipPath id="cp-16" clipPathUnits="userSpaceOnUse"><polygon points="297.53697738004405 -297.5369773800436 297.5369773800441 -0.02413403047703966 -302.4630226199559 -0.024134030477005908 -302.46302261995595 -297.5369773800436"/></clipPath>
    <clipPath id="cp-17" clipPathUnits="userSpaceOnUse"><polygon points="295.16999536009274 -295.169995360093 295.1699953600931 -0.19303494038752156 -304.83000463990703 -0.19303494038758906 -304.8300046399074 -295.16999536009314"/></clipPath>
    <clipPath id="cp-18" clipPathUnits="userSpaceOnUse"><polygon points="-307.00881002564756 292.9911899743527 -307.0088100256469 0.651459762416601 292.9911899743536 0.6514597624175673 292.9911899743529 292.99118997435363"/></clipPath>
    <clipPath id="cp-19" clipPathUnits="userSpaceOnUse"><polygon points="291.0850715612098 -291.08507156120993 291.0850715612099 -1.5450100049749906 -308.91492843879 -1.5450100049747917 -308.91492843879007 -291.0850715612097"/></clipPath>
    <clipPath id="cp-20" clipPathUnits="userSpaceOnUse"><polygon points="289.52515808482354 -289.5251580848247 289.52515808482406 -3.0229140431776678 -310.47484191517583 -3.0229140431768364 -310.47484191517634 -289.5251580848239"/></clipPath>
    <clipPath id="cp-21" clipPathUnits="userSpaceOnUse"><polygon points="-311.6288895207776 288.3711104792233 -311.62888952077714 5.244308406477687 288.3711104792231 5.24430840647849 288.37111047922264 288.3711104792241"/></clipPath>
    <clipPath id="cp-22" clipPathUnits="userSpaceOnUse"><polygon points="287.66648567693915 -287.6664856769407 287.6664856769402 -8.39069756655334 -312.3335143230598 -8.390697566551344 -312.33351432306085 -287.66648567693863"/></clipPath>
    <clipPath id="cp-23" clipPathUnits="userSpaceOnUse"><polygon points="287.43718592964706 -287.43718592964916 287.4371859296483 -12.68971118217431 -312.5628140703519 -12.689711182172676 -312.56281407035317 -287.43718592964757"/></clipPath>
    <clipPath id="cp-24" clipPathUnits="userSpaceOnUse"><polygon points="287.6906443976893 -287.6906443976895 287.69064439768937 -18.460935447890947 -312.30935560231063 -18.460935447890883 -312.3093556023107 -287.69064439768937"/></clipPath>
    <clipPath id="cp-25" clipPathUnits="userSpaceOnUse"><polygon points="-311.58424990333873 288.4157500966611 -311.5842499033361 26.20882491144613 288.415750096664 26.20882491145163 288.4157500966614 288.41575009666656"/></clipPath>
    <clipPath id="cp-26" clipPathUnits="userSpaceOnUse"><polygon points="-310.4165172053543 289.5834827946454 -310.4165172053536 36.82763460750908 289.5834827946465 36.827634607510475 289.5834827946458 289.5834827946468"/></clipPath>
    <clipPath id="cp-27" clipPathUnits="userSpaceOnUse"><polygon points="-308.8517979227644 291.14820207723466 -308.8517979227617 52.11319102605019 291.1482020772383 52.11319102605805 291.1482020772356 291.1482020772425"/></clipPath>
    <clipPath id="cp-28" clipPathUnits="userSpaceOnUse"><polygon points="-306.95048475219744 293.0495152478032 -306.95048475219556 76.2959346654373 293.04951524780455 76.29593466544188 293.0495152478027 293.04951524780773"/></clipPath>
    <clipPath id="cp-29" clipPathUnits="userSpaceOnUse"><polygon points="295.2146357746245 -295.2146357746286 295.2146357746257 -122.16765325255392 -304.78536422537405 -122.16765325254983 -304.78536422537525 -295.2146357746245"/></clipPath>
    <clipPath id="cp-30" clipPathUnits="userSpaceOnUse"><polygon points="-302.4388633355938 297.5611366644065 -302.43886333559135 253.95432827069027 297.56113666440876 253.954328270723 297.5611366644063 297.56113666443923"/></clipPath>
    <clipPath id="cp-31" clipPathUnits="userSpaceOnUse"><polygon points="-274.74992511478877 274.7499251186375 -274.74992511476444 -325.25007488136464 -0.0024503672896436512 -325.2500748813536 -0.0024503673140223725 274.74992511864855"/></clipPath>
    <clipPath id="cp-32" clipPathUnits="userSpaceOnUse"><polygon points="-250.52407136758686 250.52407136793377 -250.52407136757367 -349.47592863206535 -0.019020862523071003 -349.4759286320614 -0.019020862536230254 250.5240713679377"/></clipPath>
    <clipPath id="cp-33" clipPathUnits="userSpaceOnUse"><polygon points="226.32533545147635 -373.67466454471753 226.3253354515682 226.32533545528304 0.06270918894190913 226.3253354553177 0.06270918885007859 -373.67466454468286"/></clipPath>
    <clipPath id="cp-34" clipPathUnits="userSpaceOnUse"><polygon points="-203.1735344195636 203.1735344205563 -203.17353441953892 -396.82646557945225 -0.14323138923592182 -396.82646557944383 -0.14323138926059187 203.17353442056472"/></clipPath>
    <clipPath id="cp-35" clipPathUnits="userSpaceOnUse"><polygon points="-181.07501920003205 181.07501919902083 -181.0750191999885 -418.92498080097846 -0.26693839190770063 -418.92498080096766 -0.26693839195129954 181.0750191990317"/></clipPath>
    <clipPath id="cp-36" clipPathUnits="userSpaceOnUse"><polygon points="160.03234521265313 -439.96765478607495 160.03234521267996 160.03234521390846 0.4363856167203721 160.03234521391556 0.43638561669354203 -439.96765478606784"/></clipPath>
    <clipPath id="cp-37" clipPathUnits="userSpaceOnUse"><polygon points="-140.04419180764162 140.04419180918987 -140.04419180760365 -459.9558081908102 -0.6502524136643046 -459.95580819080146 -0.6502524137022192 140.04419180919868"/></clipPath>
    <clipPath id="cp-38" clipPathUnits="userSpaceOnUse"><polygon points="-122.11055276586615 122.1105527617913 -122.11055276579793 -477.88944723820896 -0.8984315536767724 -477.8894472381952 -0.8984315537449845 122.11055276180505"/></clipPath>
    <clipPath id="cp-39" clipPathUnits="userSpaceOnUse"><polygon points="106.22012351017369 -493.77987649004666 106.22012351022042 106.22012350995311 1.1696184597153092 106.22012350996141 1.1696184596686408 -493.77987649003836"/></clipPath>
    <clipPath id="cp-40" clipPathUnits="userSpaceOnUse"><polygon points="91.35600302004696 -508.643996980805 91.35600302006821 91.35600301920908 1.4570131210782904 91.35600301921016 1.4570131210570878 -508.64399698080393"/></clipPath>
    <clipPath id="cp-41" clipPathUnits="userSpaceOnUse"><polygon points="79.51003848862112 -520.4899615109908 79.51003848884054 79.51003848902619 1.732260711062736 79.51003848905461 1.7322607108432635 -520.4899615109624"/></clipPath>
    <clipPath id="cp-42" clipPathUnits="userSpaceOnUse"><polygon points="68.66121218854988 -531.3387878105214 68.66121218856227 68.66121218947859 1.994545521895617 68.66121218947995 1.994545521883225 -531.33878781052"/></clipPath>
    <clipPath id="cp-43" clipPathUnits="userSpaceOnUse"><polygon points="-60.79843633640044 60.79843634111401 -60.79843633607223 -539.2015636588885 -2.2125777502136543 -539.2015636588533 -2.2125777505418682 60.7984363411492"/></clipPath>
    <clipPath id="cp-44" clipPathUnits="userSpaceOnUse"><polygon points="-54.90671692383222 54.906716923474534 -54.90671692343011 -545.0932830765256 -2.381464398177542 -545.0932830764904 -2.381464398579709 54.90671692350972"/></clipPath>
    <clipPath id="cp-45" clipPathUnits="userSpaceOnUse"><polygon points="-50.97607537849839 50.976075373069705 -50.97607537756912 -549.0239246269298 -2.4912268927207037 -549.0239246268559 -2.49122689364998 50.97607537314349"/></clipPath>
    <clipPath id="cp-46" clipPathUnits="userSpaceOnUse"><polygon points="-50.97607537533514 50.97607537653005 -50.976075373819015 -549.0239246234864 -2.4912268889706013 -549.0239246233652 -2.491226890486729 50.97607537665118"/></clipPath>
    <clipPath id="cp-47" clipPathUnits="userSpaceOnUse"><polygon points="54.90671692268069 -545.0932830756067 54.90671692279096 54.90671692439341 2.381464397538423 54.90671692440307 2.3814643974281466 -545.093283075597"/></clipPath>
    <clipPath id="cp-48" clipPathUnits="userSpaceOnUse"><polygon points="-60.79843634054558 60.79843633707918 -60.79843634018167 -539.2015636629378 -2.212577754323121 -539.2015636629023 -2.2125777546870324 60.79843633711471"/></clipPath>
    <clipPath id="cp-49" clipPathUnits="userSpaceOnUse"><polygon points="-68.66121218831648 68.66121218971523 -68.66121218828283 -531.3387878103018 -1.9945455216162316 -531.3387878102981 -1.994545521649826 68.66121218971892"/></clipPath>
    <clipPath id="cp-50" clipPathUnits="userSpaceOnUse"><polygon points="-79.51003849033143 79.51003848769346 -79.51003848992397 -520.489961512304 -1.7322607121462 -520.4899615122531 -1.7322607125536535 79.5100384877444"/></clipPath>
    <clipPath id="cp-51" clipPathUnits="userSpaceOnUse"><polygon points="-91.3560030187945 91.35600302055101 -91.35600301858292 -508.6439969794317 -1.4570131195930287 -508.64399697939996 -1.4570131198046 91.35600302058273"/></clipPath>
    <clipPath id="cp-52" clipPathUnits="userSpaceOnUse"><polygon points="-106.22012351208883 106.2201235081481 -106.22012351185964 -493.7798764918518 -1.1696184613545597 -493.7798764918116 -1.1696184615837524 106.2201235081883"/></clipPath>
    <clipPath id="cp-53" clipPathUnits="userSpaceOnUse"><polygon points="122.11055276204547 -477.88944723449356 122.11055276216655 122.11055276552347 0.8984315500453874 122.11055276554796 0.898431549924311 -477.8894472344691"/></clipPath>
    <clipPath id="cp-54" clipPathUnits="userSpaceOnUse"><polygon points="-140.04419180764162 140.04419180918987 -140.04419180760365 -459.9558081908102 -0.6502524136643046 -459.95580819080146 -0.6502524137022192 140.04419180919868"/></clipPath>
    <clipPath id="cp-55" clipPathUnits="userSpaceOnUse"><polygon points="-160.03234521286382 160.03234521373238 -160.03234521278992 -439.96765478626764 -0.43638561683039256 -439.967654786248 -0.43638561690423217 160.032345213752"/></clipPath>
    <clipPath id="cp-56" clipPathUnits="userSpaceOnUse"><polygon points="-181.07501920148144 181.07501919759278 -181.07501920142482 -418.9249808024071 -0.2669383933440628 -418.92498080239005 -0.2669383934006504 181.07501919760983"/></clipPath>
    <clipPath id="cp-57" clipPathUnits="userSpaceOnUse"><polygon points="-203.1735344195636 203.1735344205563 -203.17353441953892 -396.82646557945225 -0.14323138923592182 -396.82646557944383 -0.14323138926059187 203.17353442056472"/></clipPath>
    <clipPath id="cp-58" clipPathUnits="userSpaceOnUse"><polygon points="226.32533545147635 -373.67466454471753 226.3253354515682 226.32533545528304 0.06270918894190913 226.3253354553177 0.06270918885007859 -373.67466454468286"/></clipPath>
    <clipPath id="cp-59" clipPathUnits="userSpaceOnUse"><polygon points="-250.52407136758686 250.52407136793377 -250.52407136757367 -349.47592863206535 -0.019020862523071003 -349.4759286320614 -0.019020862536230254 250.5240713679377"/></clipPath>
    <clipPath id="cp-60" clipPathUnits="userSpaceOnUse"><polygon points="274.74992511483936 -325.25007488141625 274.7499251148412 274.749925118584 0.0024503673663751613 274.749925118585 0.002450367364541961 -325.25007488141523"/></clipPath>
    <clipPath id="cp-61" clipPathUnits="userSpaceOnUse"><polygon points="-0.0024503670846947045 -274.7499251188706 -0.002450367076836102 325.2500748811293 -274.7499251145516 325.2500748811328 -274.74992511455946 -274.7499251188671"/></clipPath>
    <clipPath id="cp-62" clipPathUnits="userSpaceOnUse"><polygon points="-0.019020863252222853 -250.5240713672313 -0.01902086323286767 349.4759286327677 -250.5240713682834 349.47592863277407 -250.5240713683027 -250.52407136722493"/></clipPath>
    <clipPath id="cp-63" clipPathUnits="userSpaceOnUse"><polygon points="-0.0627091920428029 -226.32533545221474 -0.06270919200790104 373.6746645477855 -226.32533545463423 373.6746645477986 -226.32533545466913 -226.3253354522016"/></clipPath>
    <clipPath id="cp-64" clipPathUnits="userSpaceOnUse"><polygon points="-0.14323139007845498 -203.1735344197221 -0.1432313900618567 396.82646558026687 -203.1735344203649 396.82646558027017 -203.1735344203815 -203.1735344197188"/></clipPath>
    <clipPath id="cp-65" clipPathUnits="userSpaceOnUse"><polygon points="0.2669383895052846 418.92498079854835 0.266938389543256 -181.07501920145154 181.07501919762404 -181.07501920144 181.07501919758607 418.9249807985599"/></clipPath>
    <clipPath id="cp-66" clipPathUnits="userSpaceOnUse"><polygon points="-0.43638561690423217 -160.032345213752 -0.43638561683039256 439.967654786248 -160.03234521278992 439.96765478626764 -160.03234521286382 -160.03234521373238"/></clipPath>
    <clipPath id="cp-67" clipPathUnits="userSpaceOnUse"><polygon points="-0.6502524137022192 -140.04419180919868 -0.6502524136643046 459.95580819080146 -140.04419180760365 459.9558081908102 -140.04419180764162 -140.04419180918987"/></clipPath>
    <clipPath id="cp-68" clipPathUnits="userSpaceOnUse"><polygon points="0.898431549924311 477.8894472344691 0.8984315500453874 -122.11055276554796 122.11055276216655 -122.11055276552347 122.11055276204547 477.88944723449356"/></clipPath>
    <clipPath id="cp-69" clipPathUnits="userSpaceOnUse"><polygon points="-1.1696184615837524 -106.2201235081883 -1.1696184613545597 493.7798764918116 -106.22012351185964 493.7798764918518 -106.22012351208883 -106.2201235081481"/></clipPath>
    <clipPath id="cp-70" clipPathUnits="userSpaceOnUse"><polygon points="-1.4570131198046 -91.35600302058273 -1.4570131195930287 508.64399697939996 -91.35600301858292 508.6439969794317 -91.3560030187945 -91.35600302055101"/></clipPath>
    <clipPath id="cp-71" clipPathUnits="userSpaceOnUse"><polygon points="-1.7322607125536535 -79.5100384877444 -1.7322607121462 520.4899615122531 -79.51003848992397 520.489961512304 -79.51003849033143 -79.51003848769346"/></clipPath>
    <clipPath id="cp-72" clipPathUnits="userSpaceOnUse"><polygon points="-1.994545521649826 -68.66121218971892 -1.9945455216162316 531.3387878102981 -68.66121218828283 531.3387878103018 -68.66121218831648 -68.66121218971523"/></clipPath>
    <clipPath id="cp-73" clipPathUnits="userSpaceOnUse"><polygon points="-2.2125777546870324 -60.79843633711471 -2.212577754323121 539.2015636629023 -60.79843634018167 539.2015636629378 -60.79843634054558 -60.79843633707918"/></clipPath>
    <clipPath id="cp-74" clipPathUnits="userSpaceOnUse"><polygon points="2.3814643974281466 545.093283075597 2.381464397538423 -54.90671692440307 54.90671692279096 -54.90671692439341 54.90671692268069 545.0932830756067"/></clipPath>
    <clipPath id="cp-75" clipPathUnits="userSpaceOnUse"><polygon points="-2.491226890486729 -50.97607537665118 -2.4912268889706013 549.0239246233652 -50.976075373819015 549.0239246234864 -50.97607537533514 -50.97607537653005"/></clipPath>
    <clipPath id="cp-76" clipPathUnits="userSpaceOnUse"><polygon points="-2.49122689364998 -50.97607537314349 -2.4912268927207037 549.0239246268559 -50.97607537756912 549.0239246269298 -50.97607537849839 -50.976075373069705"/></clipPath>
    <clipPath id="cp-77" clipPathUnits="userSpaceOnUse"><polygon points="-2.381464398579709 -54.90671692350972 -2.381464398177542 545.0932830764904 -54.90671692343011 545.0932830765256 -54.90671692383222 -54.906716923474534"/></clipPath>
    <clipPath id="cp-78" clipPathUnits="userSpaceOnUse"><polygon points="-2.2125777505418682 -60.7984363411492 -2.2125777502136543 539.2015636588533 -60.79843633607223 539.2015636588885 -60.79843633640044 -60.79843634111401"/></clipPath>
    <clipPath id="cp-79" clipPathUnits="userSpaceOnUse"><polygon points="1.994545521883225 531.33878781052 1.994545521895617 -68.66121218947995 68.66121218856227 -68.66121218947859 68.66121218854988 531.3387878105214"/></clipPath>
    <clipPath id="cp-80" clipPathUnits="userSpaceOnUse"><polygon points="1.7322607108432635 520.4899615109624 1.732260711062736 -79.51003848905461 79.51003848884054 -79.51003848902619 79.51003848862112 520.4899615109908"/></clipPath>
    <clipPath id="cp-81" clipPathUnits="userSpaceOnUse"><polygon points="1.4570131210570878 508.64399698080393 1.4570131210782904 -91.35600301921016 91.35600302006821 -91.35600301920908 91.35600302004696 508.643996980805"/></clipPath>
    <clipPath id="cp-82" clipPathUnits="userSpaceOnUse"><polygon points="1.1696184596686408 493.77987649003836 1.1696184597153092 -106.22012350996141 106.22012351022042 -106.22012350995311 106.22012351017369 493.77987649004666"/></clipPath>
    <clipPath id="cp-83" clipPathUnits="userSpaceOnUse"><polygon points="-0.8984315515123455 -122.11055276412893 -0.8984315512931573 477.88944723585416 -122.11055276341438 477.8894472358984 -122.11055276363356 -122.11055276408464"/></clipPath>
    <clipPath id="cp-84" clipPathUnits="userSpaceOnUse"><polygon points="-0.6502524137022192 -140.04419180919868 -0.6502524136643046 459.95580819080146 -140.04419180760365 459.9558081908102 -140.04419180764162 -140.04419180918987"/></clipPath>
    <clipPath id="cp-85" clipPathUnits="userSpaceOnUse"><polygon points="0.43638561669354203 439.96765478606784 0.4363856167203721 -160.03234521391556 160.03234521267996 -160.03234521390846 160.03234521265313 439.96765478607495"/></clipPath>
    <clipPath id="cp-86" clipPathUnits="userSpaceOnUse"><polygon points="-0.26693839349417203 -181.0750191975077 -0.26693839343067793 418.92498080249175 -181.07501920151154 418.92498080250834 -181.07501920157497 -181.0750191974911"/></clipPath>
    <clipPath id="cp-87" clipPathUnits="userSpaceOnUse"><polygon points="-0.14323139007845498 -203.1735344197221 -0.1432313900618567 396.82646558026687 -203.1735344203649 396.82646558027017 -203.1735344203815 -203.1735344197188"/></clipPath>
    <clipPath id="cp-88" clipPathUnits="userSpaceOnUse"><polygon points="-0.0627091920428029 -226.32533545221474 -0.06270919200790104 373.6746645477855 -226.32533545463423 373.6746645477986 -226.32533545466913 -226.3253354522016"/></clipPath>
    <clipPath id="cp-89" clipPathUnits="userSpaceOnUse"><polygon points="-0.019020863252222853 -250.5240713672313 -0.01902086323286767 349.4759286327677 -250.5240713682834 349.47592863277407 -250.5240713683027 -250.52407136722493"/></clipPath>
    <clipPath id="cp-90" clipPathUnits="userSpaceOnUse"><polygon points="-0.002450369092485971 -274.7499251168604 -0.002450369083625503 325.25007488314196 -274.74992511655836 325.250074883146 -274.7499251165672 -274.7499251168564"/></clipPath>
    <clipPath id="cp-91" clipPathUnits="userSpaceOnUse"><polygon points="7.6602697880642 -300 300 -300 300 300 7.6602697880642 300"/></clipPath>
    <clipPath id="cp-92" clipPathUnits="userSpaceOnUse"><polygon points="-300 -300 300 -300 300 -73.30421142789453 -300 -73.30421142789453"/></clipPath>
    <marker id="arrowhead-yellow" refX="10" refY="4" markerWidth="12" markerHeight="8" orient="auto" markerUnits="userSpaceOnUse">
      <polygon fill="#d6a700" points="0 0, 10 4, 0 8"/>      
    </marker>
    <marker id="arrowhead-blue" refX="10" refY="4" markerWidth="12" markerHeight="8" orient="auto" markerUnits="userSpaceOnUse">
      <polygon fill="#1d63c4" points="0 0, 10 4, 0 8"/>      
    </marker>
  </defs>
  <title>
    Sphere with standard lat/long grid and tangent basis vectors    
  </title>
  <ellipse transform="rotate(18.43494882292201 6.776263578034403e-15 -3.388131789017199e-15) " fill="none" stroke="#333333" stroke-width="1" cx="6.776263578034403e-15" cy="-3.388131789017199e-15" rx="249.99999999999997" ry="249.99999999999997"/>  
  <ellipse transform="rotate(89.99999999999906 2.4388633355772114 -9.77705831722328e-15) " fill="none" stroke="#333333" stroke-width="1" clip-path="url(#cp-1)" cx="2.4388633355772114" cy="-9.77705831722328e-15" rx="250.0120100651411" ry="248.8200867090315"/>  
  <ellipse transform="rotate(89.99999999999962 4.785364225373295 1.2666753635947606e-15) " fill="none" stroke="#333333" stroke-width="1" clip-path="url(#cp-2)" cx="4.785364225373295" cy="1.2666753635947606e-15" rx="250.04758887693976" ry="245.28967792557683"/>  
  <ellipse transform="rotate(-89.99999999999955 6.950484752194866 3.211807129275373e-14) " fill="none" stroke="#333333" stroke-width="1" clip-path="url(#cp-3)" cx="6.950484752194866" cy="3.211807129275373e-14" rx="250.1053981074299" ry="239.43684585535763"/>  
  <ellipse transform="rotate(-89.99999999999925 8.851797922761296 -1.55206903328605e-13) " fill="none" stroke="#333333" stroke-width="1" clip-path="url(#cp-4)" cx="8.851797922761296" cy="-1.55206903328605e-13" rx="250.18325956941024" ry="231.3086267689899"/>  
  <ellipse transform="rotate(89.9999999999998 10.416517205353424 2.3478552083216382e-14) " fill="none" stroke="#333333" stroke-width="1" clip-path="url(#cp-5)" cx="10.416517205353424" cy="2.3478552083216382e-14" rx="250.27823239567215" ry="220.97134730905825"/>  
  <ellipse transform="rotate(-89.99999999999966 11.584249903335868 -5.43801767023483e-14) " fill="none" stroke="#333333" stroke-width="1" clip-path="url(#cp-6)" cx="11.584249903335868" cy="-5.43801767023483e-14" rx="250.38671831397767" ry="208.5109895174516"/>  
  <ellipse transform="rotate(89.99999999999999 12.309355602310578 -6.854416013070463e-14) " fill="none" stroke="#333333" stroke-width="1" clip-path="url(#cp-7)" cx="12.309355602310578" cy="-6.854416013070463e-14" rx="250.50459212714964" ry="194.03351059333306"/>  
  <ellipse transform="rotate(89.99999999999987 12.562814070351786 -1.611278000920173e-14) " fill="none" stroke="#333333" stroke-width="1" clip-path="url(#cp-8)" cx="12.562814070351786" cy="-1.611278000920173e-14" rx="250.62735355854286" ry="177.66502039863008"/>  
  <ellipse transform="rotate(89.9999999999998 12.333514323060017 1.0868586361468612e-13) " fill="none" stroke="#333333" stroke-width="1" clip-path="url(#cp-9)" cx="12.333514323060017" cy="1.0868586361468612e-13" rx="250.7502956471606" ry="159.5517145907539"/>  
  <ellipse transform="rotate(-89.9999999999998 11.62888952077705 -1.902900743069915e-13) " fill="none" stroke="#333333" stroke-width="1" clip-path="url(#cp-10)" cx="11.62888952077705" cy="-1.902900743069915e-13" rx="250.86868392996945" ry="139.85946508103552"/>  
  <ellipse transform="rotate(-89.99999999999986 10.474841915175995 -4.572778525782039e-14) " fill="none" stroke="#333333" stroke-width="1" clip-path="url(#cp-11)" cx="10.474841915175995" cy="-4.572778525782039e-14" rx="250.9779398103342" ry="118.77298278906758"/>  
  <ellipse transform="rotate(89.99999999999993 8.914928438790069 1.409997200875043e-13) " fill="none" stroke="#333333" stroke-width="1" clip-path="url(#cp-12)" cx="8.914928438790069" cy="1.409997200875043e-13" rx="251.0738208746837" ry="96.49449008311257"/>  
  <ellipse transform="rotate(-89.99999999999994 7.008810025646854 9.858605858026286e-14) " fill="none" stroke="#333333" stroke-width="1" clip-path="url(#cp-13)" cx="7.008810025646854" cy="9.858605858026286e-14" rx="251.1525905811511" ry="73.24187061551814"/>  
  <ellipse transform="rotate(-89.99999999999999 4.830004639906933 -7.581584181044314e-14) " fill="none" stroke="#333333" stroke-width="1" clip-path="url(#cp-14)" cx="4.830004639906933" cy="-7.581584181044314e-14" rx="251.21116978915128" ry="49.246300249542294"/>  
  <ellipse transform="rotate(89.99999999999997 2.4630226199561642 8.685492685045989e-14) " fill="none" stroke="#333333" stroke-width="1" clip-path="url(#cp-15)" cx="2.4630226199561642" cy="8.685492685045989e-14" rx="251.24726308603587" ry="24.749401331673038"/>  
  <line fill="none" stroke="#333333" stroke-width="1" x1="-1.3916440899401741e-14" y1="-250" x2="1.7008983321491018e-14" y2="250"/>  
  <ellipse transform="rotate(-90 -2.463022619956156 2.6377314259613706e-13) " fill="none" stroke="#333333" stroke-width="1" clip-path="url(#cp-16)" cx="-2.463022619956156" cy="2.6377314259613706e-13" rx="251.24726308603582" ry="24.74940133167301"/>  
  <ellipse transform="rotate(-90 -4.8300046399069085 -7.581790731827016e-14) " fill="none" stroke="#333333" stroke-width="1" clip-path="url(#cp-17)" cx="-4.8300046399069085" cy="-7.581790731827016e-14" rx="251.21116978915117" ry="49.24630024954225"/>  
  <ellipse transform="rotate(89.9999999999999 -7.0088100256468895 -2.2486018321343268e-13) " fill="none" stroke="#333333" stroke-width="1" clip-path="url(#cp-18)" cx="-7.0088100256468895" cy="-2.2486018321343268e-13" rx="251.15259058115126" ry="73.24187061551812"/>  
  <ellipse transform="rotate(-89.99999999999997 -8.9149284387901 3.531196352508929e-14) " fill="none" stroke="#333333" stroke-width="1" clip-path="url(#cp-19)" cx="-8.9149284387901" cy="3.531196352508929e-14" rx="251.07382087468386" ry="96.49449008311255"/>  
  <ellipse transform="rotate(-89.99999999999993 -10.474841915176006 7.707400125318546e-14) " fill="none" stroke="#333333" stroke-width="1" clip-path="url(#cp-20)" cx="-10.474841915176006" cy="7.707400125318546e-14" rx="250.97793981033422" ry="118.77298278906753"/>  
  <ellipse transform="rotate(89.99999999999991 -11.628889520776994 5.885561162518533e-14) " fill="none" stroke="#333333" stroke-width="1" clip-path="url(#cp-21)" cx="-11.628889520776994" cy="5.885561162518533e-14" rx="250.86868392996945" ry="139.85946508103544"/>  
  <ellipse transform="rotate(-89.9999999999998 -12.333514323060026 2.65192856721169e-13) " fill="none" stroke="#333333" stroke-width="1" clip-path="url(#cp-22)" cx="-12.333514323060026" cy="2.65192856721169e-13" rx="250.7502956471606" ry="159.55171459075382"/>  
  <ellipse transform="rotate(-89.99999999999984 -12.562814070351736 2.0968321891515003e-14) " fill="none" stroke="#333333" stroke-width="1" clip-path="url(#cp-23)" cx="-12.562814070351736" cy="2.0968321891515003e-14" rx="250.62735355854286" ry="177.66502039863"/>  
  <ellipse transform="rotate(-89.99999999999999 -12.309355602310578 -6.854416013070463e-14) " fill="none" stroke="#333333" stroke-width="1" clip-path="url(#cp-24)" cx="-12.309355602310578" cy="-6.854416013070463e-14" rx="250.50459212714964" ry="194.03351059333306"/>  
  <ellipse transform="rotate(89.99999999999946 -11.584249903335968 -2.156929294321924e-13) " fill="none" stroke="#333333" stroke-width="1" clip-path="url(#cp-25)" cx="-11.584249903335968" cy="-2.156929294321924e-13" rx="250.38671831397764" ry="208.51098951745172"/>  
  <ellipse transform="rotate(89.99999999999984 -10.416517205353461 -4.8835556502724876e-15) " fill="none" stroke="#333333" stroke-width="1" clip-path="url(#cp-26)" cx="-10.416517205353461" cy="-4.8835556502724876e-15" rx="250.27823239567206" ry="220.9713473090583"/>  
  <ellipse transform="rotate(89.99999999999925 -8.851797922761296 -1.55206903328605e-13) " fill="none" stroke="#333333" stroke-width="1" clip-path="url(#cp-27)" cx="-8.851797922761296" cy="-1.55206903328605e-13" rx="250.18325956941024" ry="231.3086267689899"/>  
  <ellipse transform="rotate(89.99999999999955 -6.950484752194866 3.211807129275373e-14) " fill="none" stroke="#333333" stroke-width="1" clip-path="url(#cp-28)" cx="-6.950484752194866" cy="3.211807129275373e-14" rx="250.1053981074299" ry="239.43684585535763"/>  
  <ellipse transform="rotate(-89.99999999999962 -4.785364225373295 1.2666753635947606e-15) " fill="none" stroke="#333333" stroke-width="1" clip-path="url(#cp-29)" cx="-4.785364225373295" cy="1.2666753635947606e-15" rx="250.04758887693976" ry="245.28967792557683"/>  
  <ellipse transform="rotate(89.99999999999683 -2.4388633355772344 -2.161991423353099e-14) " fill="none" stroke="#333333" stroke-width="1" clip-path="url(#cp-30)" cx="-2.4388633355772344" cy="-2.161991423353099e-14" rx="250.01201006513847" ry="248.8200867090341"/>  
  <ellipse transform="rotate(-18.43494882292201 -6.776263578034403e-15 -3.388131789017199e-15) " fill="none" stroke="#1f8a3e" stroke-width="2" cx="-6.776263578034403e-15" cy="-3.388131789017199e-15" rx="249.99999999999997" ry="249.99999999999997"/>  
  <line fill="none" stroke="#333333" stroke-width="1" x1="-250" y1="-1.3916440899401741e-14" x2="250" y2="1.7008983321491018e-14"/>  
  <ellipse transform="rotate(89.9999999999977 1.935500172036494e-9 -25.25007488328792) " fill="none" stroke="#333333" stroke-width="1" clip-path="url(#cp-31)" cx="1.935500172036494e-9" cy="-25.25007488328792" rx="2.512848887118671" ry="250.03743884140528"/>  
  <ellipse transform="rotate(89.99999999999908 1.7880971047156515e-10 -49.47592863224075) " fill="none" stroke="#333333" stroke-width="1" clip-path="url(#cp-32)" cx="1.7880971047156515e-10" cy="-49.47592863224075" rx="4.852526253677653" ry="246.38421760207328"/>  
  <ellipse transform="rotate(-89.9999999999912 -1.8976497726134788e-9 -73.67466454658012) " fill="none" stroke="#333333" stroke-width="1" clip-path="url(#cp-33)" cx="-1.8976497726134788e-9" cy="-73.67466454658012" rx="7.050225822612404" ry="240.33804435078727"/>  
  <ellipse transform="rotate(89.99999999999766 5.0529138733295e-10 -96.82646557994343) " fill="none" stroke="#333333" stroke-width="1" clip-path="url(#cp-34)" cx="5.0529138733295e-10" cy="-96.82646557994343" rx="8.945598975472764" ry="231.96196425551096"/>  
  <ellipse transform="rotate(89.99999999999659 -4.899645997770418e-10 -118.92498080047814) " fill="none" stroke="#333333" stroke-width="1" clip-path="url(#cp-35)" cx="-4.899645997770418e-10" cy="-118.92498080047814" rx="10.488246943016984" ry="221.342782001074"/>  
  <ellipse transform="rotate(-89.99999999999746 -6.266801770505636e-10 -139.9676547867067) " fill="none" stroke="#333333" stroke-width="1" clip-path="url(#cp-36)" cx="-6.266801770505636e-10" cy="-139.9676547867067" rx="11.637885166037337" ry="208.58968736609026"/>  
  <ellipse transform="rotate(89.99999999999636 7.880720763883158e-10 -159.9558081915893) " fill="none" stroke="#333333" stroke-width="1" clip-path="url(#cp-37)" cx="7.880720763883158e-10" cy="-159.9558081915893" rx="12.36475118082072" ry="193.83259971901992"/>  
  <ellipse transform="rotate(89.99999999999349 -2.01350713195528e-9 -177.88944723618135) " fill="none" stroke="#333333" stroke-width="1" clip-path="url(#cp-38)" cx="-2.01350713195528e-9" cy="-177.88944723618135" rx="12.57868344422202" ry="177.22030125206797"/>  
  <ellipse transform="rotate(-89.99999999999551 1.1772902637642517e-10 -193.77987648992078) " fill="none" stroke="#333333" stroke-width="1" clip-path="url(#cp-39)" cx="1.1772902637642517e-10" cy="-193.77987648992078" rx="12.293265225125946" ry="158.91843089761193"/>  
  <ellipse transform="rotate(-89.99999999999933 4.271688848110595e-10 -208.6439969803647) " fill="none" stroke="#333333" stroke-width="1" clip-path="url(#cp-40)" cx="4.271688848110595e-10" cy="-208.6439969803647" rx="11.591639402054199" ry="139.10740743871534"/>  
  <ellipse transform="rotate(-89.99999999997905 -1.611445245542869e-10 -220.48996151110816) " fill="none" stroke="#333333" stroke-width="1" clip-path="url(#cp-41)" cx="-1.611445245542869e-10" cy="-220.48996151110816" rx="10.393824835921881" ry="117.98034204992494"/>  
  <ellipse transform="rotate(-89.99999999999882 -4.6192823691152033e-10 -231.33878781098204) " fill="none" stroke="#333333" stroke-width="1" clip-path="url(#cp-42)" cx="-4.6192823691152033e-10" cy="-231.33878781098204" rx="8.852952135865976" ry="95.74098849225867"/>  
  <ellipse transform="rotate(89.99999999996561 2.4634090553906798e-9 -239.20156366131326) " fill="none" stroke="#333333" stroke-width="1" clip-path="url(#cp-43)" cx="2.4634090553906798e-9" cy="-239.20156366131326" rx="6.943654870609211" ry="72.60176476917431"/>  
  <ellipse transform="rotate(89.99999999996159 -5.995985378954234e-11 -245.09328307642886) " fill="none" stroke="#333333" stroke-width="1" clip-path="url(#cp-44)" cx="-5.995985378954234e-11" cy="-245.09328307642886" rx="4.781532751940576" ry="48.78186463338378"/>  
  <ellipse transform="rotate(89.99999999991284 -2.4466654316430784e-9 -249.02392462440588) " fill="none" stroke="#333333" stroke-width="1" clip-path="url(#cp-45)" cx="-2.4466654316430784e-9" cy="-249.02392462440588" rx="2.440861296271973" ry="24.50546227197027"/>  
  <line fill="none" stroke="#333333" stroke-width="1" x1="-1.5308084989341916e-14" y1="-250" x2="1.5308084989341916e-14" y2="-250"/>  
  <ellipse transform="rotate(89.99999999985684 1.035958063691153e-9 -249.02392462437987) " fill="none" stroke="#333333" stroke-width="1" clip-path="url(#cp-46)" cx="1.035958063691153e-9" cy="-249.02392462437987" rx="2.4408612963917853" ry="24.50546227312653"/>  
  <ellipse transform="rotate(-89.99999999998946 -8.338950773791308e-10 -245.0932830764304) " fill="none" stroke="#333333" stroke-width="1" clip-path="url(#cp-47)" cx="-8.338950773791308e-10" cy="-245.0932830764304" rx="4.781532751926574" ry="48.781864633232956"/>  
  <ellipse transform="rotate(89.99999999996524 -1.624574176392726e-9 -239.20156366126096) " fill="none" stroke="#333333" stroke-width="1" clip-path="url(#cp-48)" cx="-1.624574176392726e-9" cy="-239.20156366126096" rx="6.943654870619374" ry="72.60176476918011"/>  
  <ellipse transform="rotate(89.99999999999682 7.0860640773945e-10 -231.3387878109915) " fill="none" stroke="#333333" stroke-width="1" clip-path="url(#cp-49)" cx="7.0860640773945e-10" cy="-231.3387878109915" rx="8.852952135861845" ry="95.74098849224976"/>  
  <ellipse transform="rotate(89.9999999999625 -1.1936318858937481e-9 -220.48996151106047) " fill="none" stroke="#333333" stroke-width="1" clip-path="url(#cp-50)" cx="-1.1936318858937481e-9" cy="-220.48996151106047" rx="10.393824835919967" ry="117.98034204989641"/>  
  <ellipse transform="rotate(89.99999999997979 9.486618407037676e-10 -208.64399698036272) " fill="none" stroke="#333333" stroke-width="1" clip-path="url(#cp-51)" cx="9.486618407037676e-10" cy="-208.64399698036272" rx="11.591639402053458" ry="139.10740743870153"/>  
  <ellipse transform="rotate(89.99999999997809 -1.8927029669222103e-9 -193.77987648991854) " fill="none" stroke="#333333" stroke-width="1" clip-path="url(#cp-52)" cx="-1.8927029669222103e-9" cy="-193.77987648991854" rx="12.293265225127538" ry="158.9184308976032"/>  
  <ellipse transform="rotate(-89.99999999998845 -1.7193015173104659e-9 -177.88944723617453) " fill="none" stroke="#333333" stroke-width="1" clip-path="url(#cp-53)" cx="-1.7193015173104659e-9" cy="-177.88944723617453" rx="12.578683444223831" ry="177.22030125208656"/>  
  <ellipse transform="rotate(89.99999999999636 7.880720763883158e-10 -159.9558081915893) " fill="none" stroke="#333333" stroke-width="1" clip-path="url(#cp-54)" cx="7.880720763883158e-10" cy="-159.9558081915893" rx="12.36475118082072" ry="193.83259971901992"/>  
  <ellipse transform="rotate(89.99999999999292 4.6255578047203007e-10 -139.9676547867106) " fill="none" stroke="#333333" stroke-width="1" clip-path="url(#cp-55)" cx="4.6255578047203007e-10" cy="-139.9676547867106" rx="11.637885166037325" ry="208.5896873661048"/>  
  <ellipse transform="rotate(89.99999999999457 -1.921603045798645e-9 -118.92498080046849) " fill="none" stroke="#333333" stroke-width="1" clip-path="url(#cp-56)" cx="-1.921603045798645e-9" cy="-118.92498080046849" rx="10.488246943017826" ry="221.3427820010422"/>  
  <ellipse transform="rotate(89.99999999999766 5.0529138733295e-10 -96.82646557994343) " fill="none" stroke="#333333" stroke-width="1" clip-path="url(#cp-57)" cx="5.0529138733295e-10" cy="-96.82646557994343" rx="8.945598975472764" ry="231.96196425551096"/>  
  <ellipse transform="rotate(-89.9999999999912 -1.8976497726134788e-9 -73.67466454658012) " fill="none" stroke="#333333" stroke-width="1" clip-path="url(#cp-58)" cx="-1.8976497726134788e-9" cy="-73.67466454658012" rx="7.050225822612404" ry="240.33804435078727"/>  
  <ellipse transform="rotate(89.99999999999908 1.7880971047156515e-10 -49.47592863224075) " fill="none" stroke="#333333" stroke-width="1" clip-path="url(#cp-59)" cx="1.7880971047156515e-10" cy="-49.47592863224075" rx="4.852526253677653" ry="246.38421760207328"/>  
  <ellipse transform="rotate(-89.9999999999998 -1.8723688924201965e-9 -25.25007488328743) " fill="none" stroke="#333333" stroke-width="1" clip-path="url(#cp-60)" cx="-1.8723688924201965e-9" cy="-25.25007488328743" rx="2.512848887118448" ry="250.03743884140056"/>  
  <line fill="none" stroke="#1f8a3e" stroke-width="2" x1="-250" y1="-1.3916440899401741e-14" x2="250" y2="1.7008983321491018e-14"/>  
  <ellipse transform="rotate(-89.99999999999925 2.1575720658792053e-9 25.250074883286924) " fill="none" stroke="#333333" stroke-width="1" clip-path="url(#cp-61)" cx="2.1575720658792053e-9" cy="25.250074883286924" rx="2.5128488871182264" ry="250.0374388413785"/>  
  <ellipse transform="rotate(-89.99999999999852 -5.308247019843584e-10 49.475928632237455) " fill="none" stroke="#333333" stroke-width="1" clip-path="url(#cp-62)" cx="-5.308247019843584e-10" cy="49.475928632237455" rx="4.852526253677844" ry="246.38421760206577"/>  
  <ellipse transform="rotate(-89.99999999999666 -1.2184500365088725e-9 73.67466454656689) " fill="none" stroke="#333333" stroke-width="1" clip-path="url(#cp-63)" cx="-1.2184500365088725e-9" cy="73.67466454656689" rx="7.050225822614937" ry="240.33804435072875"/>  
  <ellipse transform="rotate(-89.99999999999906 -3.2422159719384885e-10 96.82646557994993) " fill="none" stroke="#333333" stroke-width="1" clip-path="url(#cp-64)" cx="-3.2422159719384885e-10" cy="96.82646557994993" rx="8.945598975472082" ry="231.96196425552165"/>  
  <ellipse transform="rotate(89.99999999999636 -1.9232745860709646e-9 118.92498080047164) " fill="none" stroke="#333333" stroke-width="1" clip-path="url(#cp-65)" cx="-1.9232745860709646e-9" cy="118.92498080047164" rx="10.488246943018284" ry="221.34278200105598"/>  
  <ellipse transform="rotate(-89.99999999999292 4.6255578047203007e-10 139.9676547867106) " fill="none" stroke="#333333" stroke-width="1" clip-path="url(#cp-66)" cx="4.6255578047203007e-10" cy="139.9676547867106" rx="11.637885166037325" ry="208.5896873661048"/>  
  <ellipse transform="rotate(-89.99999999999636 7.880720763883158e-10 159.9558081915893) " fill="none" stroke="#333333" stroke-width="1" clip-path="url(#cp-67)" cx="7.880720763883158e-10" cy="159.9558081915893" rx="12.36475118082072" ry="193.83259971901992"/>  
  <ellipse transform="rotate(89.99999999998845 -1.7193015173104659e-9 177.88944723617453) " fill="none" stroke="#333333" stroke-width="1" clip-path="url(#cp-68)" cx="-1.7193015173104659e-9" cy="177.88944723617453" rx="12.578683444223831" ry="177.22030125208656"/>  
  <ellipse transform="rotate(-89.99999999997809 -1.8927029669222103e-9 193.77987648991854) " fill="none" stroke="#333333" stroke-width="1" clip-path="url(#cp-69)" cx="-1.8927029669222103e-9" cy="193.77987648991854" rx="12.293265225127538" ry="158.9184308976032"/>  
  <ellipse transform="rotate(-89.99999999997979 9.486618407037676e-10 208.64399698036272) " fill="none" stroke="#333333" stroke-width="1" clip-path="url(#cp-70)" cx="9.486618407037676e-10" cy="208.64399698036272" rx="11.591639402053458" ry="139.10740743870153"/>  
  <ellipse transform="rotate(-89.9999999999625 -1.1936318858937481e-9 220.48996151106047) " fill="none" stroke="#333333" stroke-width="1" clip-path="url(#cp-71)" cx="-1.1936318858937481e-9" cy="220.48996151106047" rx="10.393824835919967" ry="117.98034204989641"/>  
  <ellipse transform="rotate(-89.99999999999682 7.0860640773945e-10 231.3387878109915) " fill="none" stroke="#333333" stroke-width="1" clip-path="url(#cp-72)" cx="7.0860640773945e-10" cy="231.3387878109915" rx="8.852952135861845" ry="95.74098849224976"/>  
  <ellipse transform="rotate(-89.99999999996524 -1.624574176392726e-9 239.20156366126096) " fill="none" stroke="#333333" stroke-width="1" clip-path="url(#cp-73)" cx="-1.624574176392726e-9" cy="239.20156366126096" rx="6.943654870619374" ry="72.60176476918011"/>  
  <ellipse transform="rotate(89.99999999998946 -8.338950773791308e-10 245.0932830764304) " fill="none" stroke="#333333" stroke-width="1" clip-path="url(#cp-74)" cx="-8.338950773791308e-10" cy="245.0932830764304" rx="4.781532751926574" ry="48.781864633232956"/>  
  <ellipse transform="rotate(-89.99999999985684 1.035958063691153e-9 249.02392462437987) " fill="none" stroke="#333333" stroke-width="1" clip-path="url(#cp-75)" cx="1.035958063691153e-9" cy="249.02392462437987" rx="2.4408612963917853" ry="24.50546227312653"/>  
  <line fill="none" stroke="#333333" stroke-width="1" x1="-1.5308084989341916e-14" y1="250" x2="1.5308084989341916e-14" y2="250"/>  
  <ellipse transform="rotate(-89.99999999991284 -2.4466654316430784e-9 249.02392462440588) " fill="none" stroke="#333333" stroke-width="1" clip-path="url(#cp-76)" cx="-2.4466654316430784e-9" cy="249.02392462440588" rx="2.440861296271973" ry="24.50546227197027"/>  
  <ellipse transform="rotate(-89.99999999996159 -5.995985378954234e-11 245.09328307642886) " fill="none" stroke="#333333" stroke-width="1" clip-path="url(#cp-77)" cx="-5.995985378954234e-11" cy="245.09328307642886" rx="4.781532751940576" ry="48.78186463338378"/>  
  <ellipse transform="rotate(-89.99999999996561 2.4634090553906798e-9 239.20156366131326) " fill="none" stroke="#333333" stroke-width="1" clip-path="url(#cp-78)" cx="2.4634090553906798e-9" cy="239.20156366131326" rx="6.943654870609211" ry="72.60176476917431"/>  
  <ellipse transform="rotate(89.99999999999882 -4.6192823691152033e-10 231.33878781098204) " fill="none" stroke="#333333" stroke-width="1" clip-path="url(#cp-79)" cx="-4.6192823691152033e-10" cy="231.33878781098204" rx="8.852952135865976" ry="95.74098849225867"/>  
  <ellipse transform="rotate(89.99999999997905 -1.611445245542869e-10 220.48996151110816) " fill="none" stroke="#333333" stroke-width="1" clip-path="url(#cp-80)" cx="-1.611445245542869e-10" cy="220.48996151110816" rx="10.393824835921881" ry="117.98034204992494"/>  
  <ellipse transform="rotate(89.99999999999933 4.271688848110595e-10 208.6439969803647) " fill="none" stroke="#333333" stroke-width="1" clip-path="url(#cp-81)" cx="4.271688848110595e-10" cy="208.6439969803647" rx="11.591639402054199" ry="139.10740743871534"/>  
  <ellipse transform="rotate(89.99999999999551 1.1772902637642517e-10 193.77987648992078) " fill="none" stroke="#333333" stroke-width="1" clip-path="url(#cp-82)" cx="1.1772902637642517e-10" cy="193.77987648992078" rx="12.293265225125946" ry="158.91843089761193"/>  
  <ellipse transform="rotate(-89.99999999997907 3.0440746674390545e-10 177.88944723617172) " fill="none" stroke="#333333" stroke-width="1" clip-path="url(#cp-83)" cx="3.0440746674390545e-10" cy="177.88944723617172" rx="12.57868344422332" ry="177.2203012520581"/>  
  <ellipse transform="rotate(-89.99999999999636 7.880720763883158e-10 159.9558081915893) " fill="none" stroke="#333333" stroke-width="1" clip-path="url(#cp-84)" cx="7.880720763883158e-10" cy="159.9558081915893" rx="12.36475118082072" ry="193.83259971901992"/>  
  <ellipse transform="rotate(89.99999999999746 -6.266801770505636e-10 139.9676547867067) " fill="none" stroke="#333333" stroke-width="1" clip-path="url(#cp-85)" cx="-6.266801770505636e-10" cy="139.9676547867067" rx="11.637885166037337" ry="208.58968736609026"/>  
  <ellipse transform="rotate(-89.99999999999474 -2.018493002659583e-9 118.9249808004736) " fill="none" stroke="#333333" stroke-width="1" clip-path="url(#cp-86)" cx="-2.018493002659583e-9" cy="118.9249808004736" rx="10.488246943016279" ry="221.34278200106132"/>  
  <ellipse transform="rotate(-89.99999999999906 -3.2422159719384885e-10 96.82646557994993) " fill="none" stroke="#333333" stroke-width="1" clip-path="url(#cp-87)" cx="-3.2422159719384885e-10" cy="96.82646557994993" rx="8.945598975472082" ry="231.96196425552165"/>  
  <ellipse transform="rotate(-89.99999999999666 -1.2184500365088725e-9 73.67466454656689) " fill="none" stroke="#333333" stroke-width="1" clip-path="url(#cp-88)" cx="-1.2184500365088725e-9" cy="73.67466454656689" rx="7.050225822614937" ry="240.33804435072875"/>  
  <ellipse transform="rotate(-89.99999999999852 -5.308247019843584e-10 49.475928632237455) " fill="none" stroke="#333333" stroke-width="1" clip-path="url(#cp-89)" cx="-5.308247019843584e-10" cy="49.475928632237455" rx="4.852526253677844" ry="246.38421760206577"/>  
  <ellipse transform="rotate(-89.99999999999919 1.4824126954779666e-10 25.250074883288956) " fill="none" stroke="#333333" stroke-width="1" clip-path="url(#cp-90)" cx="1.4824126954779666e-10" cy="25.250074883288956" rx="2.5128488871175705" ry="250.0374388413788"/>  
  <line fill="none" stroke="#333333" stroke-width="1" x1="-250" y1="-1.3916440899401741e-14" x2="250" y2="1.7008983321491018e-14"/>  
  <path fill="none" stroke="#d6a700" stroke-width="3" clip-path="url(#cp-91)" d="M0 -250 A251.1525905811511 73.24187061551817 89.9999999999999 0 1 76.44677653672504 -79.88666971408546" marker-end="url(#arrowhead-yellow)"/>  
  <path fill="none" stroke="#1d63c4" stroke-width="3" clip-path="url(#cp-92)" d="M239.23508393305224 -72.57116931361558 A7.008810025646915 240.33804435073623 -89.99999999999933 0 0 76.44677653672504 -79.88666971408544" marker-end="url(#arrowhead-blue)"/>  
</svg>