<svg width="360" height="360" viewBox="-300 -300 600 600" xmlns="http://www.w3.org/2000/svg">
  <defs>
    <marker id="arrowhead-yellow" refX="10" refY="4" markerWidth="12" markerHeight="8" orient="auto" markerUnits="userSpaceOnUse">
      <polygon fill="#d6a700" points="0 0, 10 4, 0 8"/>      
    </marker>
    <marker id="arrowhead-blue" refX="10" refY="4" markerWidth="12" markerHeight="8" orient="auto" markerUnits="userSpaceOnUse">
      <polygon fill="#1d63c4" points="0 0, 10 4, 0 8"/>      
    </marker>
  </defs>
  <title>
    Sphere with standard lat/long grid and tangent basis vectors    
  </title>
  <ellipse transform="rotate(18.43494882292201 6.776263578034403e-15 -3.388131789017199e-15) " fill="none" stroke="#333333" stroke-width="1" cx="6.776263578034403e-15" cy="-3.388131789017199e-15" rx="249.99999999999997" ry="249.99999999999997"/>  
  <ellipse transform="rotate(-89.99999999999993 6.254189512573011 -3.793163775112945e-14) " fill="none" stroke="#333333" stroke-width="1" cx="6.254189512573011" cy="-3.793163775112945e-14" rx="250.08377621455259" ry="241.6433269080201"/>  
  <ellipse transform="rotate(-89.9999999999998 10.852448668977942 5.173497931743752e-14) " fill="none" stroke="#333333" stroke-width="1" cx="10.852448668977942" cy="5.173497931743752e-14" rx="250.3130871608794" ry="217.04897337955853"/>  
  <ellipse transform="rotate(89.99999999999987 12.562814070351786 -1.611278000920173e-14) " fill="none" stroke="#333333" stroke-width="1" cx="12.562814070351786" cy="-1.611278000920173e-14" rx="250.62735355854286" ry="177.66502039863008"/>  
  <ellipse transform="rotate(89.99999999999997 10.907120954463926 4.558243592837508e-14) " fill="none" stroke="#333333" stroke-width="1" cx="10.907120954463926" cy="4.558243592837508e-14" rx="250.9428066142479" ry="125.94458438287155"/>  
  <ellipse transform="rotate(-89.99999999999993 6.3088624883613145 -6.006217170202174e-14) " fill="none" stroke="#333333" stroke-width="1" cx="6.3088624883613145" cy="-6.006217170202174e-14" rx="251.1744909094338" ry="65.31415059683162"/>  
  <line fill="none" stroke="#333333" stroke-width="1" x1="-1.3916440899401741e-14" y1="-250" x2="1.7008983321491018e-14" y2="250"/>  
  <ellipse transform="rotate(-89.99999999999999 -6.308862488361303 -2.6774812092233567e-14) " fill="none" stroke="#333333" stroke-width="1" cx="-6.308862488361303" cy="-2.6774812092233567e-14" rx="251.17449090943393" ry="65.31415059683161"/>  
  <ellipse transform="rotate(89.9999999999999 -10.90712095446395 1.7265114410242762e-13) " fill="none" stroke="#333333" stroke-width="1" cx="-10.90712095446395" cy="1.7265114410242762e-13" rx="250.94280661424784" ry="125.94458438287144"/>  
  <ellipse transform="rotate(-89.99999999999984 -12.562814070351736 2.0968321891515003e-14) " fill="none" stroke="#333333" stroke-width="1" cx="-12.562814070351736" cy="2.0968321891515003e-14" rx="250.62735355854286" ry="177.66502039863"/>  
  <ellipse transform="rotate(89.9999999999998 -10.852448668977942 5.173497931743752e-14) " fill="none" stroke="#333333" stroke-width="1" cx="-10.852448668977942" cy="5.173497931743752e-14" rx="250.3130871608794" ry="217.04897337955853"/>  
  <ellipse transform="rotate(-89.99999999999928 -6.25418951257302 -1.1476649665426377e-15) " fill="none" stroke="#333333" stroke-width="1" cx="-6.25418951257302" cy="-1.1476649665426377e-15" rx="250.0837762145515" ry="241.64332690802107"/>  
  <ellipse transform="rotate(-18.43494882292201 -6.776263578034403e-15 -3.388131789017199e-15) " fill="none" stroke="#1f8a3e" stroke-width="2" cx="-6.776263578034403e-15" cy="-3.388131789017199e-15" rx="249.99999999999997" ry="249.99999999999997"/>  
  <line fill="none" stroke="#333333" stroke-width="1" x1="-250" y1="-1.3916440899401741e-14" x2="250" y2="1.7008983321491018e-14"/>  
  <ellipse transform="rotate(89.99999999999888 -6.585754501785874e-10 -65.61216987895702) " fill="none" stroke="#333333" stroke-width="1" cx="-6.585754501785874e-10" cy="-65.61216987895702" rx="6.337648940495491" ry="242.61592767441513"/>  
  <ellipse transform="rotate(89.99999999999521 -8.05504863411973e-10 -125.9445843828611) " fill="none" stroke="#333333" stroke-width="1" cx="-8.05504863411973e-10" cy="-125.9445843828611" rx="10.907120954464885" ry="217.32284542487838"/>  
  <ellipse transform="rotate(89.99999999999349 -2.01350713195528e-9 -177.88944723618135) " fill="none" stroke="#333333" stroke-width="1" cx="-2.01350713195528e-9" cy="-177.88944723618135" rx="12.57868344422202" ry="177.22030125206797"/>  
  <ellipse transform="rotate(-89.99999999999064 1.217682676790554e-9 -217.54385964911253) " fill="none" stroke="#333333" stroke-width="1" cx="1.217682676790554e-9" cy="-217.54385964911253" rx="10.877192982458165" ry="125.15654358043133"/>  
  <ellipse transform="rotate(89.9999999999468 4.4017656158280566e-10 -241.16154760480532) " fill="none" stroke="#333333" stroke-width="1" cx="4.4017656158280566e-10" cy="-241.16154760480532" rx="6.241720146646093" ry="64.72644415539445"/>  
  <line fill="none" stroke="#333333" stroke-width="1" x1="-1.5308084989341916e-14" y1="-250" x2="1.5308084989341916e-14" y2="-250"/>  
  <ellipse transform="rotate(-89.99999999999017 2.714830142036175e-10 -241.1615476048107) " fill="none" stroke="#333333" stroke-width="1" cx="2.714830142036175e-10" cy="-241.1615476048107" rx="6.241720146636698" ry="64.72644415530134"/>  
  <ellipse transform="rotate(89.99999999997489 -6.537548889185369e-10 -217.54385964910804) " fill="none" stroke="#333333" stroke-width="1" cx="-6.537548889185369e-10" cy="-217.54385964910804" rx="10.877192982457233" ry="125.15654358042946"/>  
  <ellipse transform="rotate(-89.99999999998845 -1.7193015173104659e-9 -177.88944723617453) " fill="none" stroke="#333333" stroke-width="1" cx="-1.7193015173104659e-9" cy="-177.88944723617453" rx="12.578683444223831" ry="177.22030125208656"/>  
  <ellipse transform="rotate(89.99999999999521 -8.05504863411973e-10 -125.9445843828611) " fill="none" stroke="#333333" stroke-width="1" cx="-8.05504863411973e-10" cy="-125.9445843828611" rx="10.907120954464885" ry="217.32284542487838"/>  
  <ellipse transform="rotate(89.99999999999642 2.236478527117921e-10 -65.61216987895624) " fill="none" stroke="#333333" stroke-width="1" cx="2.236478527117921e-10" cy="-65.61216987895624" rx="6.337648940495645" ry="242.6159276744203"/>  
  <line fill="none" stroke="#1f8a3e" stroke-width="2" x1="-250" y1="-1.3916440899401741e-14" x2="250" y2="1.7008983321491018e-14"/>  
  <ellipse transform="rotate(-89.9999999999998 9.46564276222757e-11 65.61216987895567) " fill="none" stroke="#333333" stroke-width="1" cx="9.46564276222757e-11" cy="65.61216987895567" rx="6.337648940496004" ry="242.61592767443025"/>  
  <ellipse transform="rotate(-89.9999999999947 -1.680004720867156e-9 125.94458438287023) " fill="none" stroke="#333333" stroke-width="1" cx="-1.680004720867156e-9" cy="125.94458438287023" rx="10.907120954465897" ry="217.32284542493105"/>  
  <ellipse transform="rotate(89.99999999998845 -1.7193015173104659e-9 177.88944723617453) " fill="none" stroke="#333333" stroke-width="1" cx="-1.7193015173104659e-9" cy="177.88944723617453" rx="12.578683444223831" ry="177.22030125208656"/>  
  <ellipse transform="rotate(-89.99999999997489 -6.537548889185369e-10 217.54385964910804) " fill="none" stroke="#333333" stroke-width="1" cx="-6.537548889185369e-10" cy="217.54385964910804" rx="10.877192982457233" ry="125.15654358042946"/>  
  <ellipse transform="rotate(89.99999999999017 2.714830142036175e-10 241.1615476048107) " fill="none" stroke="#333333" stroke-width="1" cx="2.714830142036175e-10" cy="241.1615476048107" rx="6.241720146636698" ry="64.72644415530134"/>  
  <line fill="none" stroke="#333333" stroke-width="1" x1="-1.5308084989341916e-14" y1="250" x2="1.5308084989341916e-14" y2="250"/>  
  <ellipse transform="rotate(-89.9999999999468 4.4017656158280566e-10 241.16154760480532) " fill="none" stroke="#333333" stroke-width="1" cx="4.4017656158280566e-10" cy="241.16154760480532" rx="6.241720146646093" ry="64.72644415539445"/>  
  <ellipse transform="rotate(89.99999999999064 1.217682676790554e-9 217.54385964911253) " fill="none" stroke="#333333" stroke-width="1" cx="1.217682676790554e-9" cy="217.54385964911253" rx="10.877192982458165" ry="125.15654358043133"/>  
  <ellipse transform="rotate(-89.99999999997907 3.0440746674390545e-10 177.88944723617172) " fill="none" stroke="#333333" stroke-width="1" cx="3.0440746674390545e-10" cy="177.88944723617172" rx="12.57868344422332" ry="177.2203012520581"/>  
  <ellipse transform="rotate(-89.9999999999947 -1.680004720867156e-9 125.94458438287023) " fill="none" stroke="#333333" stroke-width="1" cx="-1.680004720867156e-9" cy="125.94458438287023" rx="10.907120954465897" ry="217.32284542493105"/>  
  <ellipse transform="rotate(89.9999999999995 3.909671860823909e-10 65.61216987896418) " fill="none" stroke="#333333" stroke-width="1" cx="3.909671860823909e-10" cy="65.61216987896418" rx="6.337648940493483" ry="242.6159276744454"/>  
  <line fill="none" stroke="#333333" stroke-width="1" x1="-250" y1="-1.3916440899401741e-14" x2="250" y2="1.7008983321491018e-14"/>  
  <path fill="none" stroke="#d6a700" stroke-width="3" d="M0 -250 A251.1525905811511 73.24187061551817 89.9999999999999 0 1 76.44677653672504 -79.88666971408546" marker-end="url(#arrowhead-yellow)"/>  
  <path fill="none" stroke="#1d63c4" stroke-width="3" d="M239.23508393305224 -72.57116931361558 A7.008810025646915 240.33804435073623 -89.99999999999933 0 0 76.44677653672504 -79.88666971408544" marker-end="url(#arrowhead-blue)"/>  
</svg>